<svg width="325" height="334" viewBox="0 0 325 334" fill="none" xmlns="http://www.w3.org/2000/svg">
<path d="M220.164 186.896H97.9825C94.8563 186.896 91.4696 186.548 87.8224 185.853C84.2621 185.071 80.7017 183.898 77.1413 182.334C73.6678 180.77 70.3245 178.772 67.1115 176.339C63.8985 173.819 61.0329 170.822 58.5145 167.346C56.0831 163.784 54.1292 159.7 52.653 155.095C51.1767 150.403 50.4386 145.146 50.4386 139.325V47.5711C50.4386 44.4432 50.786 41.098 51.4807 37.5356C52.2622 33.8863 53.4345 30.3239 54.9976 26.8484C56.5607 23.286 58.6014 19.8973 61.1197 16.6825C63.638 13.4676 66.6339 10.6438 70.1074 8.2109C73.6678 5.69116 77.7492 3.69274 82.3516 2.21564C86.954 0.738547 92.1643 0 97.9825 0H220.164V33.8863H97.9825C93.5538 33.8863 90.1671 35.0593 87.8224 37.4052C85.4778 39.7512 84.3055 43.2267 84.3055 47.8318V139.325C84.3055 143.669 85.4778 147.058 87.8224 149.491C90.2539 151.837 93.6406 153.01 97.9825 153.01H220.164V186.896Z" fill="#0B368A"/>
<path d="M239.316 186.896V98.401H273.657V186.896H239.316Z" fill="#0B368A"/>
<path d="M239.316 50.1912H273.657V84.5324H239.316V50.1912Z" fill="#5EDBFF"/>
<path d="M87.2689 261.341H61.3589C60.696 261.341 59.9778 261.267 59.2044 261.12C58.4494 260.954 57.6944 260.706 56.9393 260.375C56.2027 260.044 55.4938 259.621 54.8124 259.105C54.131 258.572 53.5233 257.937 52.9893 257.201C52.4737 256.447 52.0593 255.582 51.7463 254.607C51.4332 253.614 51.2767 252.5 51.2767 251.268V231.839C51.2767 231.177 51.3504 230.468 51.4977 229.714C51.6634 228.941 51.912 228.187 52.2435 227.451C52.575 226.697 53.0077 225.979 53.5418 225.298C54.0758 224.618 54.7111 224.02 55.4477 223.505C56.2027 222.971 57.0682 222.548 58.0442 222.235C59.0202 221.922 60.1251 221.766 61.3589 221.766H87.2689V228.941H61.3589C60.4198 228.941 59.7016 229.19 59.2044 229.686C58.7072 230.183 58.4586 230.919 58.4586 231.894V251.268C58.4586 252.188 58.7072 252.905 59.2044 253.42C59.72 253.917 60.4382 254.165 61.3589 254.165H87.2689V261.341Z" fill="#0B368A"/>
<path d="M125.001 241.388C125.001 242.381 124.826 243.458 124.477 244.617C124.127 245.757 123.556 246.825 122.764 247.818C121.99 248.793 120.968 249.612 119.698 250.274C118.446 250.937 116.917 251.268 115.112 251.268H98.0479V244.617L115.112 244.451C116.088 244.451 116.843 244.157 117.378 243.568C117.912 242.961 118.179 242.216 118.179 241.333C118.179 240.394 117.875 239.658 117.267 239.125C116.678 238.591 115.96 238.325 115.112 238.325H102.157C101.181 238.325 100.426 238.628 99.8924 239.235C99.3584 239.824 99.0914 240.56 99.0914 241.443V251.461C99.0914 252.418 99.386 253.163 99.9753 253.696C100.583 254.23 101.329 254.497 102.213 254.497H115.112V261.341H102.157C101.163 261.341 100.086 261.166 98.9256 260.816C97.7839 260.467 96.7158 259.906 95.7214 259.133C94.7454 258.342 93.926 257.321 93.263 256.07C92.6001 254.8 92.2686 253.264 92.2686 251.461V241.388C92.2686 240.394 92.4435 239.327 92.7934 238.187C93.1433 237.027 93.705 235.96 94.4784 234.985C95.2703 233.992 96.2923 233.164 97.5445 232.501C98.8152 231.839 100.353 231.508 102.157 231.508H115.112C116.107 231.508 117.175 231.683 118.317 232.032C119.477 232.382 120.545 232.952 121.521 233.743C122.515 234.516 123.344 235.537 124.007 236.807C124.67 238.058 125.001 239.585 125.001 241.388Z" fill="#0B368A"/>
<path d="M162.761 264.211C162.761 265.444 162.605 266.548 162.292 267.523C161.979 268.516 161.564 269.381 161.049 270.117C160.533 270.871 159.935 271.506 159.253 272.021C158.572 272.555 157.854 272.987 157.099 273.318C156.362 273.649 155.616 273.889 154.861 274.036C154.106 274.201 153.388 274.284 152.707 274.284H139.752V267.109H152.707C153.664 267.109 154.383 266.86 154.861 266.364C155.34 265.867 155.58 265.149 155.58 264.211V231.508H162.761V264.211ZM157.44 261.341H139.752C138.721 261.341 137.616 261.166 136.437 260.816C135.277 260.467 134.19 259.897 133.178 259.105C132.165 258.296 131.327 257.256 130.664 255.987C130.001 254.699 129.67 253.126 129.67 251.268V231.508H136.851V251.268C136.851 252.206 137.1 252.924 137.597 253.42C138.094 253.917 138.831 254.165 139.807 254.165H157.44V261.341Z" fill="#0B368A"/>
<path d="M182.733 261.341H179.528C178.497 261.341 177.392 261.166 176.214 260.816C175.053 260.467 173.967 259.897 172.954 259.105C171.941 258.296 171.103 257.256 170.44 255.987C169.778 254.699 169.446 253.126 169.446 251.268V218.896H176.628V251.268C176.628 252.151 176.904 252.859 177.457 253.393C178.009 253.908 178.7 254.165 179.528 254.165H182.733V261.341Z" fill="#0B368A"/>
<path d="M219.83 251.268C219.83 252.5 219.673 253.614 219.36 254.607C219.047 255.582 218.633 256.447 218.117 257.201C217.601 257.937 217.003 258.572 216.322 259.105C215.64 259.621 214.922 260.044 214.167 260.375C213.43 260.706 212.675 260.954 211.902 261.12C211.147 261.267 210.429 261.341 209.747 261.341H196.792C195.798 261.341 194.712 261.166 193.533 260.816C192.354 260.467 191.259 259.897 190.246 259.105C189.251 258.296 188.414 257.256 187.732 255.987C187.069 254.699 186.738 253.126 186.738 251.268V241.553C186.738 239.714 187.069 238.159 187.732 236.889C188.414 235.602 189.251 234.562 190.246 233.771C191.259 232.961 192.354 232.382 193.533 232.032C194.712 231.683 195.798 231.508 196.792 231.508H209.747C211.589 231.508 213.154 231.839 214.443 232.501C215.732 233.164 216.773 234.001 217.565 235.013C218.356 236.006 218.927 237.092 219.277 238.269C219.646 239.447 219.83 240.542 219.83 241.553V251.268ZM212.648 241.609C212.648 240.615 212.399 239.879 211.902 239.401C211.405 238.922 210.687 238.683 209.747 238.683H196.848C195.89 238.683 195.163 238.932 194.665 239.428C194.168 239.907 193.92 240.615 193.92 241.553V251.268C193.92 252.206 194.168 252.924 194.665 253.42C195.163 253.917 195.89 254.165 196.848 254.165H209.747C210.723 254.165 211.451 253.917 211.93 253.42C212.408 252.924 212.648 252.206 212.648 251.268V241.609Z" fill="#0B368A"/>
<path d="M259.054 261.341H251.872V244.782C251.872 243.844 251.706 243.007 251.375 242.271C251.062 241.517 250.629 240.873 250.076 240.339C249.524 239.806 248.87 239.401 248.115 239.125C247.379 238.83 246.578 238.683 245.712 238.683H233.144V261.341H225.962V235.068C225.962 234.571 226.054 234.111 226.238 233.688C226.422 233.247 226.68 232.869 227.012 232.557C227.343 232.225 227.73 231.968 228.172 231.784C228.614 231.6 229.083 231.508 229.58 231.508H245.767C246.67 231.508 247.618 231.609 248.612 231.812C249.625 232.014 250.62 232.345 251.596 232.805C252.59 233.247 253.529 233.817 254.413 234.516C255.315 235.197 256.107 236.034 256.789 237.027C257.488 238.003 258.041 239.134 258.446 240.422C258.851 241.71 259.054 243.163 259.054 244.782V261.341Z" fill="#0B368A"/>
<path d="M7.18187 308.441H0V268.866H7.18187V308.441Z" fill="#0B368A"/>
<path d="M47.8699 308.441H40.6881V291.882C40.6881 290.944 40.5223 290.107 40.1908 289.371C39.8778 288.616 39.445 287.972 38.8926 287.439C38.3401 286.905 37.6864 286.501 36.9314 286.225C36.1948 285.93 35.3937 285.783 34.5282 285.783H21.9599V308.441H14.7781V282.168C14.7781 281.671 14.8702 281.211 15.0543 280.788C15.2385 280.346 15.4963 279.969 15.8277 279.656C16.1592 279.325 16.5459 279.068 16.9879 278.884C17.4298 278.7 17.8994 278.608 18.3966 278.608H34.5835C35.4858 278.608 36.4342 278.709 37.4286 278.911C38.4414 279.114 39.4358 279.445 40.4118 279.905C41.4062 280.346 42.3454 280.917 43.2293 281.616C44.1317 282.297 44.9235 283.134 45.6049 284.127C46.3046 285.102 46.8571 286.234 47.2622 287.522C47.6674 288.81 47.8699 290.263 47.8699 291.882V308.441Z" fill="#0B368A"/>
<path d="M87.2597 308.441H80.0778V291.882C80.0778 290.944 79.9121 290.107 79.5806 289.371C79.2676 288.616 78.8348 287.972 78.2824 287.439C77.7299 286.905 77.0762 286.501 76.3212 286.225C75.5846 285.93 74.7835 285.783 73.918 285.783H61.3497V308.441H54.1679V282.168C54.1679 281.671 54.2599 281.211 54.4441 280.788C54.6282 280.346 54.8861 279.969 55.2175 279.656C55.549 279.325 55.9357 279.068 56.3777 278.884C56.8196 278.7 57.2892 278.608 57.7864 278.608H73.9733C74.8756 278.608 75.824 278.709 76.8184 278.911C77.8312 279.114 78.8256 279.445 79.8016 279.905C80.796 280.346 81.7352 280.917 82.6191 281.616C83.5215 282.297 84.3133 283.134 84.9947 284.127C85.6944 285.102 86.2469 286.234 86.652 287.522C87.0571 288.81 87.2597 290.263 87.2597 291.882V308.441Z" fill="#0B368A"/>
<path d="M126.042 298.367C126.042 299.6 125.885 300.713 125.572 301.707C125.259 302.682 124.845 303.547 124.329 304.301C123.814 305.037 123.215 305.672 122.534 306.205C121.852 306.72 121.134 307.143 120.379 307.475C119.643 307.806 118.888 308.054 118.114 308.22C117.359 308.367 116.641 308.441 115.96 308.441H103.005C102.01 308.441 100.924 308.266 99.7451 307.916C98.5665 307.567 97.4709 306.996 96.458 306.205C95.4636 305.396 94.6257 304.356 93.9444 303.087C93.2814 301.799 92.95 300.226 92.95 298.367V288.653C92.95 286.813 93.2814 285.259 93.9444 283.989C94.6257 282.701 95.4636 281.662 96.458 280.871C97.4709 280.061 98.5665 279.482 99.7451 279.132C100.924 278.782 102.01 278.608 103.005 278.608H115.96C117.801 278.608 119.366 278.939 120.655 279.601C121.944 280.264 122.985 281.101 123.777 282.113C124.569 283.106 125.139 284.192 125.489 285.369C125.858 286.547 126.042 287.641 126.042 288.653V298.367ZM118.86 288.708C118.86 287.715 118.611 286.979 118.114 286.501C117.617 286.022 116.899 285.783 115.96 285.783H103.06C102.102 285.783 101.375 286.031 100.878 286.528C100.38 287.007 100.132 287.715 100.132 288.653V298.367C100.132 299.306 100.38 300.023 100.878 300.52C101.375 301.017 102.102 301.265 103.06 301.265H115.96C116.936 301.265 117.663 301.017 118.142 300.52C118.621 300.023 118.86 299.306 118.86 298.367V288.708Z" fill="#0B368A"/>
<path d="M167.807 278.608C166.997 281.128 166.048 283.612 164.962 286.059C163.876 288.506 162.623 290.843 161.205 293.069C159.806 295.277 158.231 297.328 156.482 299.223C154.751 301.1 152.826 302.728 150.709 304.108C148.609 305.469 146.317 306.546 143.831 307.337C141.363 308.109 138.684 308.496 135.793 308.496C135.295 308.496 134.826 308.404 134.384 308.22C133.942 308.036 133.555 307.787 133.224 307.475C132.892 307.143 132.634 306.766 132.45 306.343C132.266 305.902 132.174 305.432 132.174 304.936V278.608H139.356V301.044C141.105 301.044 142.781 300.667 144.383 299.913C146.004 299.159 147.532 298.165 148.969 296.932C150.405 295.681 151.731 294.265 152.946 292.682C154.18 291.1 155.276 289.481 156.233 287.825C157.191 286.151 158.001 284.514 158.664 282.913C159.345 281.312 159.852 279.877 160.183 278.608H167.807Z" fill="#0B368A"/>
<path d="M200.291 298.561C200.291 299.554 200.116 300.63 199.766 301.79C199.417 302.93 198.846 303.997 198.054 304.991C197.28 305.966 196.258 306.785 194.988 307.447C193.736 308.109 192.207 308.441 190.402 308.441H177.447C176.453 308.441 175.376 308.266 174.216 307.916C173.074 307.567 172.006 307.006 171.011 306.233C170.035 305.442 169.216 304.421 168.553 303.169C167.89 301.9 167.559 300.364 167.559 298.561C167.559 297.567 167.733 296.491 168.083 295.332C168.433 294.173 168.995 293.106 169.768 292.13C170.56 291.137 171.582 290.309 172.834 289.647C174.105 288.984 175.643 288.653 177.447 288.653L193.469 288.488L193.792 295.44L177.447 295.497C176.471 295.497 175.716 295.801 175.182 296.408C174.648 296.997 174.381 297.733 174.381 298.616C174.381 299.554 174.685 300.29 175.293 300.824C175.919 301.339 176.656 301.596 177.503 301.596H190.402C191.378 301.596 192.133 301.302 192.667 300.713C193.201 300.125 193.469 299.389 193.469 298.505V288.488C193.469 287.549 193.174 286.804 192.585 286.252C192.014 285.7 191.286 285.424 190.402 285.424H174.63V278.608H190.402C191.397 278.608 192.465 278.782 193.607 279.132C194.767 279.482 195.835 280.052 196.811 280.843C197.805 281.616 198.634 282.637 199.297 283.906C199.96 285.157 200.291 286.685 200.291 288.488V298.561Z" fill="#0B368A"/>
<path d="M233.466 285.783H220.925V308.441H213.661V285.783H204.324V278.608H213.661V268.866H220.925V278.608H233.466V285.783Z" fill="#0B368A"/>
<path d="M245.482 272.481H238.3V265.996H245.482V272.481ZM245.482 308.441H238.3V278.608H245.482V308.441Z" fill="#0B368A"/>
<path d="M284.872 298.367C284.872 299.6 284.715 300.713 284.402 301.707C284.089 302.682 283.675 303.547 283.159 304.301C282.643 305.037 282.045 305.672 281.364 306.205C280.682 306.72 279.964 307.143 279.209 307.475C278.472 307.806 277.717 308.054 276.944 308.22C276.189 308.367 275.471 308.441 274.789 308.441H261.834C260.84 308.441 259.753 308.266 258.575 307.916C257.396 307.567 256.301 306.996 255.288 306.205C254.293 305.396 253.456 304.356 252.774 303.087C252.111 301.799 251.78 300.226 251.78 298.367V288.653C251.78 286.813 252.111 285.259 252.774 283.989C253.456 282.701 254.293 281.662 255.288 280.871C256.301 280.061 257.396 279.482 258.575 279.132C259.753 278.782 260.84 278.608 261.834 278.608H274.789C276.631 278.608 278.196 278.939 279.485 279.601C280.774 280.264 281.815 281.101 282.607 282.113C283.398 283.106 283.969 284.192 284.319 285.369C284.687 286.547 284.872 287.641 284.872 288.653V298.367ZM277.69 288.708C277.69 287.715 277.441 286.979 276.944 286.501C276.447 286.022 275.729 285.783 274.789 285.783H261.89C260.932 285.783 260.205 286.031 259.707 286.528C259.21 287.007 258.962 287.715 258.962 288.653V298.367C258.962 299.306 259.21 300.023 259.707 300.52C260.205 301.017 260.932 301.265 261.89 301.265H274.789C275.765 301.265 276.493 301.017 276.972 300.52C277.45 300.023 277.69 299.306 277.69 298.367V288.708Z" fill="#0B368A"/>
<path d="M324.096 308.441H316.914V291.882C316.914 290.944 316.748 290.107 316.417 289.371C316.104 288.616 315.671 287.972 315.118 287.439C314.566 286.905 313.912 286.501 313.157 286.225C312.421 285.93 311.619 285.783 310.754 285.783H298.186V308.441H291.004V282.168C291.004 281.671 291.096 281.211 291.28 280.788C291.464 280.346 291.722 279.969 292.053 279.656C292.385 279.325 292.772 279.068 293.214 278.884C293.656 278.7 294.125 278.608 294.622 278.608H310.809C311.712 278.608 312.66 278.709 313.654 278.911C314.667 279.114 315.662 279.445 316.638 279.905C317.632 280.346 318.571 280.917 319.455 281.616C320.357 282.297 321.149 283.134 321.831 284.127C322.53 285.102 323.083 286.234 323.488 287.522C323.893 288.81 324.096 290.263 324.096 291.882V308.441Z" fill="#0B368A"/>
<mask id="path-5-outside-1_1062_6" maskUnits="userSpaceOnUse" x="44.5721" y="322.528" width="235" height="11" fill="black">
<rect fill="white" x="44.5721" y="322.528" width="235" height="11"/>
<path d="M45.5721 332.56V323.712H51.2861V325.101H47.0528V327.282H50.5488V328.671H47.0528V331.171H51.2861V332.56H45.5721Z"/>
<path d="M56.4465 332.56V323.712H57.7798L60.8395 329.979L63.8992 323.712H65.2324V332.56H63.85V326.889L61.1344 332.56H60.5446L57.8351 326.889V332.56H56.4465Z"/>
<path d="M70.6449 332.56V323.712H74.3006C74.3866 323.712 74.4972 323.716 74.6324 323.725C74.7675 323.729 74.8925 323.741 75.0072 323.762C75.5192 323.839 75.941 324.009 76.2728 324.271C76.6087 324.534 76.8565 324.865 77.0162 325.267C77.1801 325.664 77.262 326.107 77.262 326.594C77.262 327.077 77.1801 327.52 77.0162 327.921C76.8524 328.318 76.6025 328.648 76.2667 328.91C75.9349 329.172 75.5151 329.342 75.0072 329.42C74.8925 329.437 74.7655 329.449 74.6262 329.457C74.4911 329.465 74.3825 329.469 74.3006 329.469H72.1256V332.56H70.6449ZM72.1256 328.087H74.2392C74.3211 328.087 74.4132 328.083 74.5156 328.075C74.618 328.066 74.7122 328.05 74.7983 328.025C75.044 327.964 75.2365 327.855 75.3758 327.7C75.5192 327.544 75.6195 327.368 75.6768 327.171C75.7383 326.975 75.769 326.782 75.769 326.594C75.769 326.406 75.7383 326.213 75.6768 326.016C75.6195 325.816 75.5192 325.638 75.3758 325.482C75.2365 325.326 75.044 325.218 74.7983 325.156C74.7122 325.132 74.618 325.117 74.5156 325.113C74.4132 325.105 74.3211 325.101 74.2392 325.101H72.1256V328.087Z"/>
<path d="M85.921 332.744C85.0363 332.744 84.2785 332.552 83.6477 332.167C83.0169 331.777 82.5316 331.237 82.1916 330.545C81.8557 329.852 81.6878 329.049 81.6878 328.136C81.6878 327.223 81.8557 326.42 82.1916 325.728C82.5316 325.035 83.0169 324.497 83.6477 324.112C84.2785 323.723 85.0363 323.528 85.921 323.528C86.8057 323.528 87.5635 323.723 88.1943 324.112C88.8292 324.497 89.3145 325.035 89.6504 325.728C89.9904 326.42 90.1604 327.223 90.1604 328.136C90.1604 329.049 89.9904 329.852 89.6504 330.545C89.3145 331.237 88.8292 331.777 88.1943 332.167C87.5635 332.552 86.8057 332.744 85.921 332.744ZM85.921 331.349C86.5149 331.353 87.0085 331.222 87.4017 330.956C87.799 330.69 88.096 330.315 88.2926 329.832C88.4933 329.348 88.5936 328.783 88.5936 328.136C88.5936 327.489 88.4933 326.928 88.2926 326.453C88.096 325.973 87.799 325.601 87.4017 325.334C87.0085 325.068 86.5149 324.931 85.921 324.923C85.3271 324.919 84.8335 325.05 84.4403 325.316C84.0471 325.582 83.7501 325.957 83.5494 326.44C83.3528 326.924 83.2545 327.489 83.2545 328.136C83.2545 328.783 83.3528 329.346 83.5494 329.826C83.746 330.301 84.0409 330.671 84.4342 330.938C84.8315 331.204 85.3271 331.341 85.921 331.349Z"/>
<path d="M96.5655 332.56L93.9788 323.712H95.5333L97.2966 330.102L99.0538 323.725L100.608 323.712L102.372 330.102L104.129 323.712H105.683L103.103 332.56H101.64L99.8279 326.268L98.0277 332.56H96.5655Z"/>
<path d="M110.372 332.56V323.712H116.086V325.101H111.853V327.282H115.349V328.671H111.853V331.171H116.086V332.56H110.372Z"/>
<path d="M121.246 332.56V323.712H124.902C124.988 323.712 125.099 323.716 125.234 323.725C125.369 323.729 125.494 323.741 125.609 323.762C126.121 323.839 126.543 324.009 126.874 324.271C127.21 324.534 127.458 324.865 127.618 325.267C127.782 325.664 127.864 326.107 127.864 326.594C127.864 327.315 127.681 327.935 127.317 328.456C126.952 328.972 126.393 329.291 125.639 329.414L125.007 329.469H122.727V332.56H121.246ZM126.328 332.56L124.583 328.959L126.088 328.628L128.005 332.56H126.328ZM122.727 328.087H124.841C124.923 328.087 125.015 328.083 125.117 328.075C125.22 328.066 125.314 328.05 125.4 328.025C125.646 327.964 125.838 327.855 125.977 327.7C126.121 327.544 126.221 327.368 126.278 327.171C126.34 326.975 126.371 326.782 126.371 326.594C126.371 326.406 126.34 326.213 126.278 326.016C126.221 325.816 126.121 325.638 125.977 325.482C125.838 325.326 125.646 325.218 125.4 325.156C125.314 325.132 125.22 325.117 125.117 325.113C125.015 325.105 124.923 325.101 124.841 325.101H122.727V328.087Z"/>
<path d="M133.045 332.56V323.712H138.759V325.101H134.526V327.282H138.021V328.671H134.526V331.171H138.759V332.56H133.045Z"/>
<path d="M143.919 332.56V323.712H146.739C146.813 323.712 146.958 323.714 147.176 323.719C147.397 323.723 147.61 323.737 147.815 323.762C148.515 323.852 149.107 324.102 149.59 324.511C150.078 324.917 150.446 325.435 150.696 326.066C150.946 326.696 151.071 327.387 151.071 328.136C151.071 328.886 150.946 329.576 150.696 330.207C150.446 330.837 150.078 331.358 149.59 331.767C149.107 332.173 148.515 332.42 147.815 332.511C147.614 332.535 147.403 332.55 147.182 332.554C146.961 332.558 146.813 332.56 146.739 332.56H143.919ZM145.425 331.165H146.739C146.862 331.165 147.018 331.161 147.206 331.153C147.399 331.145 147.569 331.126 147.716 331.097C148.134 331.02 148.474 330.833 148.736 330.538C148.998 330.243 149.191 329.885 149.314 329.463C149.441 329.041 149.504 328.599 149.504 328.136C149.504 327.657 149.441 327.206 149.314 326.784C149.187 326.363 148.99 326.008 148.724 325.721C148.462 325.435 148.126 325.252 147.716 325.175C147.569 325.142 147.399 325.123 147.206 325.119C147.018 325.111 146.862 325.107 146.739 325.107H145.425V331.165Z"/>
<path d="M162.356 332.56V323.712H168.07V325.101H163.837V327.282H167.333V328.671H163.837V331.171H168.07V332.56H162.356Z"/>
<path d="M173.23 332.56V323.712H174.73L178.834 329.949V323.712H180.333V332.56H178.834L174.73 326.324V332.56H173.23Z"/>
<path d="M189.386 332.744C188.813 332.744 188.274 332.644 187.77 332.443C187.271 332.238 186.83 331.939 186.45 331.546C186.073 331.153 185.778 330.671 185.565 330.102C185.352 329.529 185.245 328.873 185.245 328.136C185.245 327.169 185.426 326.344 185.786 325.66C186.146 324.972 186.64 324.446 187.267 324.081C187.893 323.712 188.6 323.528 189.386 323.528C190.476 323.528 191.338 323.782 191.973 324.29C192.612 324.794 193.044 325.502 193.269 326.416L191.758 326.655C191.59 326.131 191.316 325.713 190.935 325.402C190.554 325.087 190.068 324.929 189.479 324.929C188.885 324.921 188.391 325.05 187.998 325.316C187.605 325.582 187.308 325.957 187.107 326.44C186.91 326.924 186.812 327.489 186.812 328.136C186.812 328.783 186.91 329.346 187.107 329.826C187.304 330.301 187.598 330.671 187.992 330.938C188.389 331.204 188.885 331.341 189.479 331.349C189.925 331.353 190.316 331.274 190.652 331.11C190.988 330.942 191.262 330.69 191.475 330.354C191.688 330.014 191.832 329.59 191.905 329.082H190.345V327.921H193.478C193.486 327.987 193.493 328.083 193.497 328.21C193.501 328.337 193.503 328.413 193.503 328.437C193.503 329.273 193.337 330.016 193.005 330.667C192.677 331.315 192.206 331.822 191.592 332.191C190.978 332.56 190.242 332.744 189.386 332.744Z"/>
<path d="M198.546 332.56V323.712H200.027V332.56H198.546Z"/>
<path d="M205.554 332.56V323.712H207.053L211.157 329.949V323.712H212.656V332.56H211.157L207.053 326.324V332.56H205.554Z"/>
<path d="M218.06 332.56V323.712H223.774V325.101H219.541V327.282H223.037V328.671H219.541V331.171H223.774V332.56H218.06Z"/>
<path d="M228.934 332.56V323.712H234.648V325.101H230.415V327.282H233.911V328.671H230.415V331.171H234.648V332.56H228.934Z"/>
<path d="M239.809 332.56V323.712H243.464C243.55 323.712 243.661 323.716 243.796 323.725C243.931 323.729 244.056 323.741 244.171 323.762C244.683 323.839 245.105 324.009 245.437 324.271C245.773 324.534 246.02 324.865 246.18 325.267C246.344 325.664 246.426 326.107 246.426 326.594C246.426 327.315 246.244 327.935 245.879 328.456C245.514 328.972 244.955 329.291 244.202 329.414L243.569 329.469H241.289V332.56H239.809ZM244.89 332.56L243.145 328.959L244.65 328.628L246.567 332.56H244.89ZM241.289 328.087H243.403C243.485 328.087 243.577 328.083 243.679 328.075C243.782 328.066 243.876 328.05 243.962 328.025C244.208 327.964 244.4 327.855 244.54 327.7C244.683 327.544 244.783 327.368 244.841 327.171C244.902 326.975 244.933 326.782 244.933 326.594C244.933 326.406 244.902 326.213 244.841 326.016C244.783 325.816 244.683 325.638 244.54 325.482C244.4 325.326 244.208 325.218 243.962 325.156C243.876 325.132 243.782 325.117 243.679 325.113C243.577 325.105 243.485 325.101 243.403 325.101H241.289V328.087Z"/>
<path d="M251.73 332.56V323.712H253.211V332.56H251.73Z"/>
<path d="M258.738 332.56V323.712H260.237L264.341 329.949V323.712H265.84V332.56H264.341L260.237 326.324V332.56H258.738Z"/>
<path d="M274.893 332.744C274.32 332.744 273.781 332.644 273.278 332.443C272.778 332.238 272.338 331.939 271.957 331.546C271.58 331.153 271.285 330.671 271.072 330.102C270.859 329.529 270.752 328.873 270.752 328.136C270.752 327.169 270.933 326.344 271.293 325.66C271.654 324.972 272.147 324.446 272.774 324.081C273.4 323.712 274.107 323.528 274.893 323.528C275.983 323.528 276.845 323.782 277.48 324.29C278.119 324.794 278.551 325.502 278.776 326.416L277.265 326.655C277.097 326.131 276.823 325.713 276.442 325.402C276.061 325.087 275.575 324.929 274.986 324.929C274.392 324.921 273.898 325.05 273.505 325.316C273.112 325.582 272.815 325.957 272.614 326.44C272.417 326.924 272.319 327.489 272.319 328.136C272.319 328.783 272.417 329.346 272.614 329.826C272.811 330.301 273.106 330.671 273.499 330.938C273.896 331.204 274.392 331.341 274.986 331.349C275.432 331.353 275.823 331.274 276.159 331.11C276.495 330.942 276.769 330.69 276.982 330.354C277.195 330.014 277.339 329.59 277.412 329.082H275.852V327.921H278.985C278.994 327.987 279 328.083 279.004 328.21C279.008 328.337 279.01 328.413 279.01 328.437C279.01 329.273 278.844 330.016 278.512 330.667C278.185 331.315 277.714 331.822 277.099 332.191C276.485 332.56 275.75 332.744 274.893 332.744Z"/>
</mask>
<path d="M45.5721 332.56V323.712H51.2861V325.101H47.0528V327.282H50.5488V328.671H47.0528V331.171H51.2861V332.56H45.5721Z" fill="#4D4D4D"/>
<path d="M56.4465 332.56V323.712H57.7798L60.8395 329.979L63.8992 323.712H65.2324V332.56H63.85V326.889L61.1344 332.56H60.5446L57.8351 326.889V332.56H56.4465Z" fill="#4D4D4D"/>
<path d="M70.6449 332.56V323.712H74.3006C74.3866 323.712 74.4972 323.716 74.6324 323.725C74.7675 323.729 74.8925 323.741 75.0072 323.762C75.5192 323.839 75.941 324.009 76.2728 324.271C76.6087 324.534 76.8565 324.865 77.0162 325.267C77.1801 325.664 77.262 326.107 77.262 326.594C77.262 327.077 77.1801 327.52 77.0162 327.921C76.8524 328.318 76.6025 328.648 76.2667 328.91C75.9349 329.172 75.5151 329.342 75.0072 329.42C74.8925 329.437 74.7655 329.449 74.6262 329.457C74.4911 329.465 74.3825 329.469 74.3006 329.469H72.1256V332.56H70.6449ZM72.1256 328.087H74.2392C74.3211 328.087 74.4132 328.083 74.5156 328.075C74.618 328.066 74.7122 328.05 74.7983 328.025C75.044 327.964 75.2365 327.855 75.3758 327.7C75.5192 327.544 75.6195 327.368 75.6768 327.171C75.7383 326.975 75.769 326.782 75.769 326.594C75.769 326.406 75.7383 326.213 75.6768 326.016C75.6195 325.816 75.5192 325.638 75.3758 325.482C75.2365 325.326 75.044 325.218 74.7983 325.156C74.7122 325.132 74.618 325.117 74.5156 325.113C74.4132 325.105 74.3211 325.101 74.2392 325.101H72.1256V328.087Z" fill="#4D4D4D"/>
<path d="M85.921 332.744C85.0363 332.744 84.2785 332.552 83.6477 332.167C83.0169 331.777 82.5316 331.237 82.1916 330.545C81.8557 329.852 81.6878 329.049 81.6878 328.136C81.6878 327.223 81.8557 326.42 82.1916 325.728C82.5316 325.035 83.0169 324.497 83.6477 324.112C84.2785 323.723 85.0363 323.528 85.921 323.528C86.8057 323.528 87.5635 323.723 88.1943 324.112C88.8292 324.497 89.3145 325.035 89.6504 325.728C89.9904 326.42 90.1604 327.223 90.1604 328.136C90.1604 329.049 89.9904 329.852 89.6504 330.545C89.3145 331.237 88.8292 331.777 88.1943 332.167C87.5635 332.552 86.8057 332.744 85.921 332.744ZM85.921 331.349C86.5149 331.353 87.0085 331.222 87.4017 330.956C87.799 330.69 88.096 330.315 88.2926 329.832C88.4933 329.348 88.5936 328.783 88.5936 328.136C88.5936 327.489 88.4933 326.928 88.2926 326.453C88.096 325.973 87.799 325.601 87.4017 325.334C87.0085 325.068 86.5149 324.931 85.921 324.923C85.3271 324.919 84.8335 325.05 84.4403 325.316C84.0471 325.582 83.7501 325.957 83.5494 326.44C83.3528 326.924 83.2545 327.489 83.2545 328.136C83.2545 328.783 83.3528 329.346 83.5494 329.826C83.746 330.301 84.0409 330.671 84.4342 330.938C84.8315 331.204 85.3271 331.341 85.921 331.349Z" fill="#4D4D4D"/>
<path d="M96.5655 332.56L93.9788 323.712H95.5333L97.2966 330.102L99.0538 323.725L100.608 323.712L102.372 330.102L104.129 323.712H105.683L103.103 332.56H101.64L99.8279 326.268L98.0277 332.56H96.5655Z" fill="#4D4D4D"/>
<path d="M110.372 332.56V323.712H116.086V325.101H111.853V327.282H115.349V328.671H111.853V331.171H116.086V332.56H110.372Z" fill="#4D4D4D"/>
<path d="M121.246 332.56V323.712H124.902C124.988 323.712 125.099 323.716 125.234 323.725C125.369 323.729 125.494 323.741 125.609 323.762C126.121 323.839 126.543 324.009 126.874 324.271C127.21 324.534 127.458 324.865 127.618 325.267C127.782 325.664 127.864 326.107 127.864 326.594C127.864 327.315 127.681 327.935 127.317 328.456C126.952 328.972 126.393 329.291 125.639 329.414L125.007 329.469H122.727V332.56H121.246ZM126.328 332.56L124.583 328.959L126.088 328.628L128.005 332.56H126.328ZM122.727 328.087H124.841C124.923 328.087 125.015 328.083 125.117 328.075C125.22 328.066 125.314 328.05 125.4 328.025C125.646 327.964 125.838 327.855 125.977 327.7C126.121 327.544 126.221 327.368 126.278 327.171C126.34 326.975 126.371 326.782 126.371 326.594C126.371 326.406 126.34 326.213 126.278 326.016C126.221 325.816 126.121 325.638 125.977 325.482C125.838 325.326 125.646 325.218 125.4 325.156C125.314 325.132 125.22 325.117 125.117 325.113C125.015 325.105 124.923 325.101 124.841 325.101H122.727V328.087Z" fill="#4D4D4D"/>
<path d="M133.045 332.56V323.712H138.759V325.101H134.526V327.282H138.021V328.671H134.526V331.171H138.759V332.56H133.045Z" fill="#4D4D4D"/>
<path d="M143.919 332.56V323.712H146.739C146.813 323.712 146.958 323.714 147.176 323.719C147.397 323.723 147.61 323.737 147.815 323.762C148.515 323.852 149.107 324.102 149.59 324.511C150.078 324.917 150.446 325.435 150.696 326.066C150.946 326.696 151.071 327.387 151.071 328.136C151.071 328.886 150.946 329.576 150.696 330.207C150.446 330.837 150.078 331.358 149.59 331.767C149.107 332.173 148.515 332.42 147.815 332.511C147.614 332.535 147.403 332.55 147.182 332.554C146.961 332.558 146.813 332.56 146.739 332.56H143.919ZM145.425 331.165H146.739C146.862 331.165 147.018 331.161 147.206 331.153C147.399 331.145 147.569 331.126 147.716 331.097C148.134 331.02 148.474 330.833 148.736 330.538C148.998 330.243 149.191 329.885 149.314 329.463C149.441 329.041 149.504 328.599 149.504 328.136C149.504 327.657 149.441 327.206 149.314 326.784C149.187 326.363 148.99 326.008 148.724 325.721C148.462 325.435 148.126 325.252 147.716 325.175C147.569 325.142 147.399 325.123 147.206 325.119C147.018 325.111 146.862 325.107 146.739 325.107H145.425V331.165Z" fill="#4D4D4D"/>
<path d="M162.356 332.56V323.712H168.07V325.101H163.837V327.282H167.333V328.671H163.837V331.171H168.07V332.56H162.356Z" fill="#4D4D4D"/>
<path d="M173.23 332.56V323.712H174.73L178.834 329.949V323.712H180.333V332.56H178.834L174.73 326.324V332.56H173.23Z" fill="#4D4D4D"/>
<path d="M189.386 332.744C188.813 332.744 188.274 332.644 187.77 332.443C187.271 332.238 186.83 331.939 186.45 331.546C186.073 331.153 185.778 330.671 185.565 330.102C185.352 329.529 185.245 328.873 185.245 328.136C185.245 327.169 185.426 326.344 185.786 325.66C186.146 324.972 186.64 324.446 187.267 324.081C187.893 323.712 188.6 323.528 189.386 323.528C190.476 323.528 191.338 323.782 191.973 324.29C192.612 324.794 193.044 325.502 193.269 326.416L191.758 326.655C191.59 326.131 191.316 325.713 190.935 325.402C190.554 325.087 190.068 324.929 189.479 324.929C188.885 324.921 188.391 325.05 187.998 325.316C187.605 325.582 187.308 325.957 187.107 326.44C186.91 326.924 186.812 327.489 186.812 328.136C186.812 328.783 186.91 329.346 187.107 329.826C187.304 330.301 187.598 330.671 187.992 330.938C188.389 331.204 188.885 331.341 189.479 331.349C189.925 331.353 190.316 331.274 190.652 331.11C190.988 330.942 191.262 330.69 191.475 330.354C191.688 330.014 191.832 329.59 191.905 329.082H190.345V327.921H193.478C193.486 327.987 193.493 328.083 193.497 328.21C193.501 328.337 193.503 328.413 193.503 328.437C193.503 329.273 193.337 330.016 193.005 330.667C192.677 331.315 192.206 331.822 191.592 332.191C190.978 332.56 190.242 332.744 189.386 332.744Z" fill="#4D4D4D"/>
<path d="M198.546 332.56V323.712H200.027V332.56H198.546Z" fill="#4D4D4D"/>
<path d="M205.554 332.56V323.712H207.053L211.157 329.949V323.712H212.656V332.56H211.157L207.053 326.324V332.56H205.554Z" fill="#4D4D4D"/>
<path d="M218.06 332.56V323.712H223.774V325.101H219.541V327.282H223.037V328.671H219.541V331.171H223.774V332.56H218.06Z" fill="#4D4D4D"/>
<path d="M228.934 332.56V323.712H234.648V325.101H230.415V327.282H233.911V328.671H230.415V331.171H234.648V332.56H228.934Z" fill="#4D4D4D"/>
<path d="M239.809 332.56V323.712H243.464C243.55 323.712 243.661 323.716 243.796 323.725C243.931 323.729 244.056 323.741 244.171 323.762C244.683 323.839 245.105 324.009 245.437 324.271C245.773 324.534 246.02 324.865 246.18 325.267C246.344 325.664 246.426 326.107 246.426 326.594C246.426 327.315 246.244 327.935 245.879 328.456C245.514 328.972 244.955 329.291 244.202 329.414L243.569 329.469H241.289V332.56H239.809ZM244.89 332.56L243.145 328.959L244.65 328.628L246.567 332.56H244.89ZM241.289 328.087H243.403C243.485 328.087 243.577 328.083 243.679 328.075C243.782 328.066 243.876 328.05 243.962 328.025C244.208 327.964 244.4 327.855 244.54 327.7C244.683 327.544 244.783 327.368 244.841 327.171C244.902 326.975 244.933 326.782 244.933 326.594C244.933 326.406 244.902 326.213 244.841 326.016C244.783 325.816 244.683 325.638 244.54 325.482C244.4 325.326 244.208 325.218 243.962 325.156C243.876 325.132 243.782 325.117 243.679 325.113C243.577 325.105 243.485 325.101 243.403 325.101H241.289V328.087Z" fill="#4D4D4D"/>
<path d="M251.73 332.56V323.712H253.211V332.56H251.73Z" fill="#4D4D4D"/>
<path d="M258.738 332.56V323.712H260.237L264.341 329.949V323.712H265.84V332.56H264.341L260.237 326.324V332.56H258.738Z" fill="#4D4D4D"/>
<path d="M274.893 332.744C274.32 332.744 273.781 332.644 273.278 332.443C272.778 332.238 272.338 331.939 271.957 331.546C271.58 331.153 271.285 330.671 271.072 330.102C270.859 329.529 270.752 328.873 270.752 328.136C270.752 327.169 270.933 326.344 271.293 325.66C271.654 324.972 272.147 324.446 272.774 324.081C273.4 323.712 274.107 323.528 274.893 323.528C275.983 323.528 276.845 323.782 277.48 324.29C278.119 324.794 278.551 325.502 278.776 326.416L277.265 326.655C277.097 326.131 276.823 325.713 276.442 325.402C276.061 325.087 275.575 324.929 274.986 324.929C274.392 324.921 273.898 325.05 273.505 325.316C273.112 325.582 272.815 325.957 272.614 326.44C272.417 326.924 272.319 327.489 272.319 328.136C272.319 328.783 272.417 329.346 272.614 329.826C272.811 330.301 273.106 330.671 273.499 330.938C273.896 331.204 274.392 331.341 274.986 331.349C275.432 331.353 275.823 331.274 276.159 331.11C276.495 330.942 276.769 330.69 276.982 330.354C277.195 330.014 277.339 329.59 277.412 329.082H275.852V327.921H278.985C278.994 327.987 279 328.083 279.004 328.21C279.008 328.337 279.01 328.413 279.01 328.437C279.01 329.273 278.844 330.016 278.512 330.667C278.185 331.315 277.714 331.822 277.099 332.191C276.485 332.56 275.75 332.744 274.893 332.744Z" fill="#4D4D4D"/>
<path d="M45.5721 332.56V323.712H51.2861V325.101H47.0528V327.282H50.5488V328.671H47.0528V331.171H51.2861V332.56H45.5721Z" stroke="#4D4D4D" stroke-width="0.8" mask="url(#path-5-outside-1_1062_6)"/>
<path d="M56.4465 332.56V323.712H57.7798L60.8395 329.979L63.8992 323.712H65.2324V332.56H63.85V326.889L61.1344 332.56H60.5446L57.8351 326.889V332.56H56.4465Z" stroke="#4D4D4D" stroke-width="0.8" mask="url(#path-5-outside-1_1062_6)"/>
<path d="M70.6449 332.56V323.712H74.3006C74.3866 323.712 74.4972 323.716 74.6324 323.725C74.7675 323.729 74.8925 323.741 75.0072 323.762C75.5192 323.839 75.941 324.009 76.2728 324.271C76.6087 324.534 76.8565 324.865 77.0162 325.267C77.1801 325.664 77.262 326.107 77.262 326.594C77.262 327.077 77.1801 327.52 77.0162 327.921C76.8524 328.318 76.6025 328.648 76.2667 328.91C75.9349 329.172 75.5151 329.342 75.0072 329.42C74.8925 329.437 74.7655 329.449 74.6262 329.457C74.4911 329.465 74.3825 329.469 74.3006 329.469H72.1256V332.56H70.6449ZM72.1256 328.087H74.2392C74.3211 328.087 74.4132 328.083 74.5156 328.075C74.618 328.066 74.7122 328.05 74.7983 328.025C75.044 327.964 75.2365 327.855 75.3758 327.7C75.5192 327.544 75.6195 327.368 75.6768 327.171C75.7383 326.975 75.769 326.782 75.769 326.594C75.769 326.406 75.7383 326.213 75.6768 326.016C75.6195 325.816 75.5192 325.638 75.3758 325.482C75.2365 325.326 75.044 325.218 74.7983 325.156C74.7122 325.132 74.618 325.117 74.5156 325.113C74.4132 325.105 74.3211 325.101 74.2392 325.101H72.1256V328.087Z" stroke="#4D4D4D" stroke-width="0.8" mask="url(#path-5-outside-1_1062_6)"/>
<path d="M85.921 332.744C85.0363 332.744 84.2785 332.552 83.6477 332.167C83.0169 331.777 82.5316 331.237 82.1916 330.545C81.8557 329.852 81.6878 329.049 81.6878 328.136C81.6878 327.223 81.8557 326.42 82.1916 325.728C82.5316 325.035 83.0169 324.497 83.6477 324.112C84.2785 323.723 85.0363 323.528 85.921 323.528C86.8057 323.528 87.5635 323.723 88.1943 324.112C88.8292 324.497 89.3145 325.035 89.6504 325.728C89.9904 326.42 90.1604 327.223 90.1604 328.136C90.1604 329.049 89.9904 329.852 89.6504 330.545C89.3145 331.237 88.8292 331.777 88.1943 332.167C87.5635 332.552 86.8057 332.744 85.921 332.744ZM85.921 331.349C86.5149 331.353 87.0085 331.222 87.4017 330.956C87.799 330.69 88.096 330.315 88.2926 329.832C88.4933 329.348 88.5936 328.783 88.5936 328.136C88.5936 327.489 88.4933 326.928 88.2926 326.453C88.096 325.973 87.799 325.601 87.4017 325.334C87.0085 325.068 86.5149 324.931 85.921 324.923C85.3271 324.919 84.8335 325.05 84.4403 325.316C84.0471 325.582 83.7501 325.957 83.5494 326.44C83.3528 326.924 83.2545 327.489 83.2545 328.136C83.2545 328.783 83.3528 329.346 83.5494 329.826C83.746 330.301 84.0409 330.671 84.4342 330.938C84.8315 331.204 85.3271 331.341 85.921 331.349Z" stroke="#4D4D4D" stroke-width="0.8" mask="url(#path-5-outside-1_1062_6)"/>
<path d="M96.5655 332.56L93.9788 323.712H95.5333L97.2966 330.102L99.0538 323.725L100.608 323.712L102.372 330.102L104.129 323.712H105.683L103.103 332.56H101.64L99.8279 326.268L98.0277 332.56H96.5655Z" stroke="#4D4D4D" stroke-width="0.8" mask="url(#path-5-outside-1_1062_6)"/>
<path d="M110.372 332.56V323.712H116.086V325.101H111.853V327.282H115.349V328.671H111.853V331.171H116.086V332.56H110.372Z" stroke="#4D4D4D" stroke-width="0.8" mask="url(#path-5-outside-1_1062_6)"/>
<path d="M121.246 332.56V323.712H124.902C124.988 323.712 125.099 323.716 125.234 323.725C125.369 323.729 125.494 323.741 125.609 323.762C126.121 323.839 126.543 324.009 126.874 324.271C127.21 324.534 127.458 324.865 127.618 325.267C127.782 325.664 127.864 326.107 127.864 326.594C127.864 327.315 127.681 327.935 127.317 328.456C126.952 328.972 126.393 329.291 125.639 329.414L125.007 329.469H122.727V332.56H121.246ZM126.328 332.56L124.583 328.959L126.088 328.628L128.005 332.56H126.328ZM122.727 328.087H124.841C124.923 328.087 125.015 328.083 125.117 328.075C125.22 328.066 125.314 328.05 125.4 328.025C125.646 327.964 125.838 327.855 125.977 327.7C126.121 327.544 126.221 327.368 126.278 327.171C126.34 326.975 126.371 326.782 126.371 326.594C126.371 326.406 126.34 326.213 126.278 326.016C126.221 325.816 126.121 325.638 125.977 325.482C125.838 325.326 125.646 325.218 125.4 325.156C125.314 325.132 125.22 325.117 125.117 325.113C125.015 325.105 124.923 325.101 124.841 325.101H122.727V328.087Z" stroke="#4D4D4D" stroke-width="0.8" mask="url(#path-5-outside-1_1062_6)"/>
<path d="M133.045 332.56V323.712H138.759V325.101H134.526V327.282H138.021V328.671H134.526V331.171H138.759V332.56H133.045Z" stroke="#4D4D4D" stroke-width="0.8" mask="url(#path-5-outside-1_1062_6)"/>
<path d="M143.919 332.56V323.712H146.739C146.813 323.712 146.958 323.714 147.176 323.719C147.397 323.723 147.61 323.737 147.815 323.762C148.515 323.852 149.107 324.102 149.59 324.511C150.078 324.917 150.446 325.435 150.696 326.066C150.946 326.696 151.071 327.387 151.071 328.136C151.071 328.886 150.946 329.576 150.696 330.207C150.446 330.837 150.078 331.358 149.59 331.767C149.107 332.173 148.515 332.42 147.815 332.511C147.614 332.535 147.403 332.55 147.182 332.554C146.961 332.558 146.813 332.56 146.739 332.56H143.919ZM145.425 331.165H146.739C146.862 331.165 147.018 331.161 147.206 331.153C147.399 331.145 147.569 331.126 147.716 331.097C148.134 331.02 148.474 330.833 148.736 330.538C148.998 330.243 149.191 329.885 149.314 329.463C149.441 329.041 149.504 328.599 149.504 328.136C149.504 327.657 149.441 327.206 149.314 326.784C149.187 326.363 148.99 326.008 148.724 325.721C148.462 325.435 148.126 325.252 147.716 325.175C147.569 325.142 147.399 325.123 147.206 325.119C147.018 325.111 146.862 325.107 146.739 325.107H145.425V331.165Z" stroke="#4D4D4D" stroke-width="0.8" mask="url(#path-5-outside-1_1062_6)"/>
<path d="M162.356 332.56V323.712H168.07V325.101H163.837V327.282H167.333V328.671H163.837V331.171H168.07V332.56H162.356Z" stroke="#4D4D4D" stroke-width="0.8" mask="url(#path-5-outside-1_1062_6)"/>
<path d="M173.23 332.56V323.712H174.73L178.834 329.949V323.712H180.333V332.56H178.834L174.73 326.324V332.56H173.23Z" stroke="#4D4D4D" stroke-width="0.8" mask="url(#path-5-outside-1_1062_6)"/>
<path d="M189.386 332.744C188.813 332.744 188.274 332.644 187.77 332.443C187.271 332.238 186.83 331.939 186.45 331.546C186.073 331.153 185.778 330.671 185.565 330.102C185.352 329.529 185.245 328.873 185.245 328.136C185.245 327.169 185.426 326.344 185.786 325.66C186.146 324.972 186.64 324.446 187.267 324.081C187.893 323.712 188.6 323.528 189.386 323.528C190.476 323.528 191.338 323.782 191.973 324.29C192.612 324.794 193.044 325.502 193.269 326.416L191.758 326.655C191.59 326.131 191.316 325.713 190.935 325.402C190.554 325.087 190.068 324.929 189.479 324.929C188.885 324.921 188.391 325.05 187.998 325.316C187.605 325.582 187.308 325.957 187.107 326.44C186.91 326.924 186.812 327.489 186.812 328.136C186.812 328.783 186.91 329.346 187.107 329.826C187.304 330.301 187.598 330.671 187.992 330.938C188.389 331.204 188.885 331.341 189.479 331.349C189.925 331.353 190.316 331.274 190.652 331.11C190.988 330.942 191.262 330.69 191.475 330.354C191.688 330.014 191.832 329.59 191.905 329.082H190.345V327.921H193.478C193.486 327.987 193.493 328.083 193.497 328.21C193.501 328.337 193.503 328.413 193.503 328.437C193.503 329.273 193.337 330.016 193.005 330.667C192.677 331.315 192.206 331.822 191.592 332.191C190.978 332.56 190.242 332.744 189.386 332.744Z" stroke="#4D4D4D" stroke-width="0.8" mask="url(#path-5-outside-1_1062_6)"/>
<path d="M198.546 332.56V323.712H200.027V332.56H198.546Z" stroke="#4D4D4D" stroke-width="0.8" mask="url(#path-5-outside-1_1062_6)"/>
<path d="M205.554 332.56V323.712H207.053L211.157 329.949V323.712H212.656V332.56H211.157L207.053 326.324V332.56H205.554Z" stroke="#4D4D4D" stroke-width="0.8" mask="url(#path-5-outside-1_1062_6)"/>
<path d="M218.06 332.56V323.712H223.774V325.101H219.541V327.282H223.037V328.671H219.541V331.171H223.774V332.56H218.06Z" stroke="#4D4D4D" stroke-width="0.8" mask="url(#path-5-outside-1_1062_6)"/>
<path d="M228.934 332.56V323.712H234.648V325.101H230.415V327.282H233.911V328.671H230.415V331.171H234.648V332.56H228.934Z" stroke="#4D4D4D" stroke-width="0.8" mask="url(#path-5-outside-1_1062_6)"/>
<path d="M239.809 332.56V323.712H243.464C243.55 323.712 243.661 323.716 243.796 323.725C243.931 323.729 244.056 323.741 244.171 323.762C244.683 323.839 245.105 324.009 245.437 324.271C245.773 324.534 246.02 324.865 246.18 325.267C246.344 325.664 246.426 326.107 246.426 326.594C246.426 327.315 246.244 327.935 245.879 328.456C245.514 328.972 244.955 329.291 244.202 329.414L243.569 329.469H241.289V332.56H239.809ZM244.89 332.56L243.145 328.959L244.65 328.628L246.567 332.56H244.89ZM241.289 328.087H243.403C243.485 328.087 243.577 328.083 243.679 328.075C243.782 328.066 243.876 328.05 243.962 328.025C244.208 327.964 244.4 327.855 244.54 327.7C244.683 327.544 244.783 327.368 244.841 327.171C244.902 326.975 244.933 326.782 244.933 326.594C244.933 326.406 244.902 326.213 244.841 326.016C244.783 325.816 244.683 325.638 244.54 325.482C244.4 325.326 244.208 325.218 243.962 325.156C243.876 325.132 243.782 325.117 243.679 325.113C243.577 325.105 243.485 325.101 243.403 325.101H241.289V328.087Z" stroke="#4D4D4D" stroke-width="0.8" mask="url(#path-5-outside-1_1062_6)"/>
<path d="M251.73 332.56V323.712H253.211V332.56H251.73Z" stroke="#4D4D4D" stroke-width="0.8" mask="url(#path-5-outside-1_1062_6)"/>
<path d="M258.738 332.56V323.712H260.237L264.341 329.949V323.712H265.84V332.56H264.341L260.237 326.324V332.56H258.738Z" stroke="#4D4D4D" stroke-width="0.8" mask="url(#path-5-outside-1_1062_6)"/>
<path d="M274.893 332.744C274.32 332.744 273.781 332.644 273.278 332.443C272.778 332.238 272.338 331.939 271.957 331.546C271.58 331.153 271.285 330.671 271.072 330.102C270.859 329.529 270.752 328.873 270.752 328.136C270.752 327.169 270.933 326.344 271.293 325.66C271.654 324.972 272.147 324.446 272.774 324.081C273.4 323.712 274.107 323.528 274.893 323.528C275.983 323.528 276.845 323.782 277.48 324.29C278.119 324.794 278.551 325.502 278.776 326.416L277.265 326.655C277.097 326.131 276.823 325.713 276.442 325.402C276.061 325.087 275.575 324.929 274.986 324.929C274.392 324.921 273.898 325.05 273.505 325.316C273.112 325.582 272.815 325.957 272.614 326.44C272.417 326.924 272.319 327.489 272.319 328.136C272.319 328.783 272.417 329.346 272.614 329.826C272.811 330.301 273.106 330.671 273.499 330.938C273.896 331.204 274.392 331.341 274.986 331.349C275.432 331.353 275.823 331.274 276.159 331.11C276.495 330.942 276.769 330.69 276.982 330.354C277.195 330.014 277.339 329.59 277.412 329.082H275.852V327.921H278.985C278.994 327.987 279 328.083 279.004 328.21C279.008 328.337 279.01 328.413 279.01 328.437C279.01 329.273 278.844 330.016 278.512 330.667C278.185 331.315 277.714 331.822 277.099 332.191C276.485 332.56 275.75 332.744 274.893 332.744Z" stroke="#4D4D4D" stroke-width="0.8" mask="url(#path-5-outside-1_1062_6)"/>
</svg>
