<svg width="325" height="334" viewBox="0 0 325 334" fill="none" xmlns="http://www.w3.org/2000/svg">
<path d="M220.26 186.896H98.0783C94.9521 186.896 91.5655 186.548 87.9183 185.853C84.3579 185.071 80.7975 183.898 77.2372 182.334C73.7636 180.77 70.4204 178.772 67.2074 176.339C63.9943 173.819 61.1287 170.822 58.6104 167.346C56.1789 163.784 54.225 159.7 52.7488 155.095C51.2725 150.403 50.5344 145.146 50.5344 139.325V47.5711C50.5344 44.4432 50.8818 41.098 51.5765 37.5356C52.358 33.8863 53.5303 30.3239 55.0934 26.8484C56.6565 23.286 58.6972 19.8973 61.2155 16.6825C63.7338 13.4676 66.7297 10.6438 70.2033 8.2109C73.7636 5.69116 77.845 3.69274 82.4475 2.21564C87.0499 0.738547 92.2602 0 98.0783 0H220.26V33.8863H98.0783C93.6496 33.8863 90.2629 35.0593 87.9183 37.4052C85.5736 39.7512 84.4013 43.2267 84.4013 47.8318V139.325C84.4013 143.669 85.5736 147.058 87.9183 149.491C90.3497 151.837 93.7364 153.01 98.0783 153.01H220.26V186.896Z" fill="white"/>
<path d="M239.411 186.896V98.401H273.753V186.896H239.411Z" fill="white"/>
<path d="M239.412 50.1912H273.753V84.5324H239.412V50.1912Z" fill="#5EDBFF"/>
<path d="M87.3646 261.341H61.4546C60.7917 261.341 60.0735 261.267 59.3001 261.12C58.5451 260.954 57.7901 260.706 57.035 260.375C56.2984 260.044 55.5895 259.621 54.9081 259.105C54.2267 258.572 53.619 257.937 53.085 257.201C52.5694 256.447 52.155 255.582 51.842 254.607C51.5289 253.614 51.3724 252.5 51.3724 251.268V231.839C51.3724 231.177 51.4461 230.468 51.5934 229.714C51.7591 228.941 52.0077 228.187 52.3392 227.451C52.6707 226.697 53.1034 225.979 53.6375 225.298C54.1715 224.618 54.8068 224.02 55.5434 223.505C56.2984 222.971 57.1639 222.548 58.1399 222.235C59.1159 221.922 60.2208 221.766 61.4546 221.766H87.3646V228.941H61.4546C60.5155 228.941 59.7973 229.19 59.3001 229.686C58.8029 230.183 58.5543 230.919 58.5543 231.894V251.268C58.5543 252.188 58.8029 252.905 59.3001 253.42C59.8157 253.917 60.5339 254.165 61.4546 254.165H87.3646V261.341Z" fill="white"/>
<path d="M125.097 241.388C125.097 242.381 124.922 243.458 124.572 244.617C124.222 245.757 123.651 246.825 122.86 247.818C122.086 248.793 121.064 249.612 119.794 250.274C118.541 250.937 117.013 251.268 115.208 251.268H98.1436V244.617L115.208 244.451C116.184 244.451 116.939 244.157 117.473 243.568C118.007 242.961 118.274 242.216 118.274 241.333C118.274 240.394 117.97 239.658 117.363 239.125C116.773 238.591 116.055 238.325 115.208 238.325H102.253C101.277 238.325 100.522 238.628 99.9881 239.235C99.4541 239.824 99.1871 240.56 99.1871 241.443V251.461C99.1871 252.418 99.4817 253.163 100.071 253.696C100.679 254.23 101.425 254.497 102.308 254.497H115.208V261.341H102.253C101.259 261.341 100.181 261.166 99.0213 260.816C97.8796 260.467 96.8115 259.906 95.8171 259.133C94.8411 258.342 94.0217 257.321 93.3587 256.07C92.6958 254.8 92.3643 253.264 92.3643 251.461V241.388C92.3643 240.394 92.5392 239.327 92.8891 238.187C93.239 237.027 93.8007 235.96 94.5741 234.985C95.366 233.992 96.388 233.164 97.6402 232.501C98.9109 231.839 100.449 231.508 102.253 231.508H115.208C116.203 231.508 117.271 231.683 118.412 232.032C119.573 232.382 120.641 232.952 121.617 233.743C122.611 234.516 123.44 235.537 124.103 236.807C124.766 238.058 125.097 239.585 125.097 241.388Z" fill="white"/>
<path d="M162.857 264.211C162.857 265.444 162.701 266.548 162.388 267.523C162.074 268.516 161.66 269.381 161.145 270.117C160.629 270.871 160.03 271.506 159.349 272.021C158.668 272.555 157.95 272.987 157.194 273.318C156.458 273.649 155.712 273.889 154.957 274.036C154.202 274.201 153.484 274.284 152.803 274.284H139.848V267.109H152.803C153.76 267.109 154.478 266.86 154.957 266.364C155.436 265.867 155.675 265.149 155.675 264.211V231.508H162.857V264.211ZM157.536 261.341H139.848C138.816 261.341 137.711 261.166 136.533 260.816C135.373 260.467 134.286 259.897 133.273 259.105C132.261 258.296 131.423 257.256 130.76 255.987C130.097 254.699 129.765 253.126 129.765 251.268V231.508H136.947V251.268C136.947 252.206 137.196 252.924 137.693 253.42C138.19 253.917 138.927 254.165 139.903 254.165H157.536V261.341Z" fill="white"/>
<path d="M182.828 261.341H179.624C178.593 261.341 177.488 261.166 176.309 260.816C175.149 260.467 174.063 259.897 173.05 259.105C172.037 258.296 171.199 257.256 170.536 255.987C169.873 254.699 169.542 253.126 169.542 251.268V218.896H176.724V251.268C176.724 252.151 177 252.859 177.552 253.393C178.105 253.908 178.795 254.165 179.624 254.165H182.828V261.341Z" fill="white"/>
<path d="M219.925 251.268C219.925 252.5 219.769 253.614 219.456 254.607C219.143 255.582 218.728 256.447 218.213 257.201C217.697 257.937 217.099 258.572 216.417 259.105C215.736 259.621 215.018 260.044 214.263 260.375C213.526 260.706 212.771 260.954 211.998 261.12C211.243 261.267 210.524 261.341 209.843 261.341H196.888C195.894 261.341 194.807 261.166 193.629 260.816C192.45 260.467 191.354 259.897 190.342 259.105C189.347 258.296 188.509 257.256 187.828 255.987C187.165 254.699 186.834 253.126 186.834 251.268V241.553C186.834 239.714 187.165 238.159 187.828 236.889C188.509 235.602 189.347 234.562 190.342 233.771C191.354 232.961 192.45 232.382 193.629 232.032C194.807 231.683 195.894 231.508 196.888 231.508H209.843C211.685 231.508 213.25 231.839 214.539 232.501C215.828 233.164 216.868 234.001 217.66 235.013C218.452 236.006 219.023 237.092 219.373 238.269C219.741 239.447 219.925 240.542 219.925 241.553V251.268ZM212.743 241.609C212.743 240.615 212.495 239.879 211.998 239.401C211.5 238.922 210.782 238.683 209.843 238.683H196.943C195.986 238.683 195.258 238.932 194.761 239.428C194.264 239.907 194.015 240.615 194.015 241.553V251.268C194.015 252.206 194.264 252.924 194.761 253.42C195.258 253.917 195.986 254.165 196.943 254.165H209.843C210.819 254.165 211.547 253.917 212.025 253.42C212.504 252.924 212.743 252.206 212.743 251.268V241.609Z" fill="white"/>
<path d="M259.149 261.341H251.968V244.782C251.968 243.844 251.802 243.007 251.47 242.271C251.157 241.517 250.725 240.873 250.172 240.339C249.62 239.806 248.966 239.401 248.211 239.125C247.474 238.83 246.673 238.683 245.808 238.683H233.239V261.341H226.058V235.068C226.058 234.571 226.15 234.111 226.334 233.688C226.518 233.247 226.776 232.869 227.107 232.557C227.439 232.225 227.825 231.968 228.267 231.784C228.709 231.6 229.179 231.508 229.676 231.508H245.863C246.765 231.508 247.714 231.609 248.708 231.812C249.721 232.014 250.715 232.345 251.691 232.805C252.686 233.247 253.625 233.817 254.509 234.516C255.411 235.197 256.203 236.034 256.884 237.027C257.584 238.003 258.137 239.134 258.542 240.422C258.947 241.71 259.149 243.163 259.149 244.782V261.341Z" fill="white"/>
<path d="M7.27757 308.441H0.0957031V268.866H7.27757V308.441Z" fill="white"/>
<path d="M47.9656 308.441H40.7838V291.882C40.7838 290.944 40.618 290.107 40.2865 289.371C39.9735 288.616 39.5407 287.972 38.9883 287.439C38.4358 286.905 37.7821 286.501 37.0271 286.225C36.2905 285.93 35.4894 285.783 34.6239 285.783H22.0556V308.441H14.8738V282.168C14.8738 281.671 14.9659 281.211 15.15 280.788C15.3342 280.346 15.592 279.969 15.9234 279.656C16.2549 279.325 16.6416 279.068 17.0836 278.884C17.5255 278.7 17.9951 278.608 18.4923 278.608H34.6792C35.5815 278.608 36.5299 278.709 37.5243 278.911C38.5371 279.114 39.5315 279.445 40.5075 279.905C41.5019 280.346 42.4411 280.917 43.325 281.616C44.2274 282.297 45.0192 283.134 45.7006 284.127C46.4003 285.102 46.9528 286.234 47.3579 287.522C47.7631 288.81 47.9656 290.263 47.9656 291.882V308.441Z" fill="white"/>
<path d="M87.3554 308.441H80.1735V291.882C80.1735 290.944 80.0078 290.107 79.6763 289.371C79.3633 288.616 78.9305 287.972 78.3781 287.439C77.8256 286.905 77.1719 286.501 76.4169 286.225C75.6803 285.93 74.8792 285.783 74.0137 285.783H61.4454V308.441H54.2636V282.168C54.2636 281.671 54.3556 281.211 54.5398 280.788C54.7239 280.346 54.9818 279.969 55.3132 279.656C55.6447 279.325 56.0314 279.068 56.4734 278.884C56.9153 278.7 57.3849 278.608 57.8821 278.608H74.069C74.9713 278.608 75.9197 278.709 76.9141 278.911C77.9269 279.114 78.9213 279.445 79.8973 279.905C80.8917 280.346 81.8309 280.917 82.7148 281.616C83.6172 282.297 84.409 283.134 85.0904 284.127C85.7901 285.102 86.3426 286.234 86.7477 287.522C87.1528 288.81 87.3554 290.263 87.3554 291.882V308.441Z" fill="white"/>
<path d="M126.138 298.367C126.138 299.6 125.981 300.713 125.668 301.707C125.355 302.682 124.941 303.547 124.425 304.301C123.909 305.037 123.311 305.672 122.629 306.205C121.948 306.72 121.23 307.143 120.475 307.475C119.738 307.806 118.983 308.054 118.21 308.22C117.455 308.367 116.737 308.441 116.055 308.441H103.1C102.106 308.441 101.019 308.266 99.8408 307.916C98.6623 307.567 97.5666 306.996 96.5537 306.205C95.5593 305.396 94.7214 304.356 94.0401 303.087C93.3771 301.799 93.0457 300.226 93.0457 298.367V288.653C93.0457 286.813 93.3771 285.259 94.0401 283.989C94.7214 282.701 95.5593 281.662 96.5537 280.871C97.5666 280.061 98.6623 279.482 99.8408 279.132C101.019 278.782 102.106 278.608 103.1 278.608H116.055C117.897 278.608 119.462 278.939 120.751 279.601C122.04 280.264 123.081 281.101 123.872 282.113C124.664 283.106 125.235 284.192 125.585 285.369C125.953 286.547 126.138 287.641 126.138 288.653V298.367ZM118.956 288.708C118.956 287.715 118.707 286.979 118.21 286.501C117.713 286.022 116.994 285.783 116.055 285.783H103.156C102.198 285.783 101.471 286.031 100.973 286.528C100.476 287.007 100.228 287.715 100.228 288.653V298.367C100.228 299.306 100.476 300.023 100.973 300.52C101.471 301.017 102.198 301.265 103.156 301.265H116.055C117.031 301.265 117.759 301.017 118.237 300.52C118.716 300.023 118.956 299.306 118.956 298.367V288.708Z" fill="white"/>
<path d="M167.903 278.608C167.093 281.128 166.144 283.612 165.058 286.059C163.971 288.506 162.719 290.843 161.301 293.069C159.901 295.277 158.327 297.328 156.578 299.223C154.847 301.1 152.922 302.728 150.804 304.108C148.705 305.469 146.412 306.546 143.926 307.337C141.459 308.109 138.779 308.496 135.888 308.496C135.391 308.496 134.921 308.404 134.48 308.22C134.038 308.036 133.651 307.787 133.319 307.475C132.988 307.143 132.73 306.766 132.546 306.343C132.362 305.902 132.27 305.432 132.27 304.936V278.608H139.452V301.044C141.201 301.044 142.877 300.667 144.479 299.913C146.099 299.159 147.628 298.165 149.064 296.932C150.501 295.681 151.827 294.265 153.042 292.682C154.276 291.1 155.371 289.481 156.329 287.825C157.287 286.151 158.097 284.514 158.76 282.913C159.441 281.312 159.948 279.877 160.279 278.608H167.903Z" fill="white"/>
<path d="M200.387 298.561C200.387 299.554 200.212 300.63 199.862 301.79C199.512 302.93 198.941 303.997 198.15 304.991C197.376 305.966 196.354 306.785 195.083 307.447C193.831 308.109 192.303 308.441 190.498 308.441H177.543C176.549 308.441 175.471 308.266 174.311 307.916C173.17 307.567 172.101 307.006 171.107 306.233C170.131 305.442 169.312 304.421 168.649 303.169C167.986 301.9 167.654 300.364 167.654 298.561C167.654 297.567 167.829 296.491 168.179 295.332C168.529 294.173 169.091 293.106 169.864 292.13C170.656 291.137 171.678 290.309 172.93 289.647C174.201 288.984 175.738 288.653 177.543 288.653L193.564 288.488L193.887 295.44L177.543 295.497C176.567 295.497 175.812 295.801 175.278 296.408C174.744 296.997 174.477 297.733 174.477 298.616C174.477 299.554 174.781 300.29 175.389 300.824C176.015 301.339 176.751 301.596 177.598 301.596H190.498C191.474 301.596 192.229 301.302 192.763 300.713C193.297 300.125 193.564 299.389 193.564 298.505V288.488C193.564 287.549 193.27 286.804 192.68 286.252C192.109 285.7 191.382 285.424 190.498 285.424H174.726V278.608H190.498C191.493 278.608 192.561 278.782 193.702 279.132C194.862 279.482 195.931 280.052 196.907 280.843C197.901 281.616 198.73 282.637 199.393 283.906C200.056 285.157 200.387 286.685 200.387 288.488V298.561Z" fill="white"/>
<path d="M233.562 285.783H221.021V308.441H213.756V285.783H204.42V278.608H213.756V268.866H221.021V278.608H233.562V285.783Z" fill="white"/>
<path d="M245.578 272.481H238.396V265.996H245.578V272.481ZM245.578 308.441H238.396V278.608H245.578V308.441Z" fill="white"/>
<path d="M284.967 298.367C284.967 299.6 284.811 300.713 284.498 301.707C284.185 302.682 283.77 303.547 283.255 304.301C282.739 305.037 282.141 305.672 281.459 306.205C280.778 306.72 280.06 307.143 279.305 307.475C278.568 307.806 277.813 308.054 277.04 308.22C276.285 308.367 275.566 308.441 274.885 308.441H261.93C260.936 308.441 259.849 308.266 258.671 307.916C257.492 307.567 256.396 306.996 255.384 306.205C254.389 305.396 253.551 304.356 252.87 303.087C252.207 301.799 251.875 300.226 251.875 298.367V288.653C251.875 286.813 252.207 285.259 252.87 283.989C253.551 282.701 254.389 281.662 255.384 280.871C256.396 280.061 257.492 279.482 258.671 279.132C259.849 278.782 260.936 278.608 261.93 278.608H274.885C276.727 278.608 278.292 278.939 279.581 279.601C280.87 280.264 281.91 281.101 282.702 282.113C283.494 283.106 284.065 284.192 284.415 285.369C284.783 286.547 284.967 287.641 284.967 288.653V298.367ZM277.785 288.708C277.785 287.715 277.537 286.979 277.04 286.501C276.542 286.022 275.824 285.783 274.885 285.783H261.985C261.028 285.783 260.3 286.031 259.803 286.528C259.306 287.007 259.057 287.715 259.057 288.653V298.367C259.057 299.306 259.306 300.023 259.803 300.52C260.3 301.017 261.028 301.265 261.985 301.265H274.885C275.861 301.265 276.588 301.017 277.067 300.52C277.546 300.023 277.785 299.306 277.785 298.367V288.708Z" fill="white"/>
<path d="M324.191 308.441H317.009V291.882C317.009 290.944 316.844 290.107 316.512 289.371C316.199 288.616 315.766 287.972 315.214 287.439C314.662 286.905 314.008 286.501 313.253 286.225C312.516 285.93 311.715 285.783 310.85 285.783H298.281V308.441H291.1V282.168C291.1 281.671 291.192 281.211 291.376 280.788C291.56 280.346 291.818 279.969 292.149 279.656C292.481 279.325 292.867 279.068 293.309 278.884C293.751 278.7 294.221 278.608 294.718 278.608H310.905C311.807 278.608 312.756 278.709 313.75 278.911C314.763 279.114 315.757 279.445 316.733 279.905C317.728 280.346 318.667 280.917 319.551 281.616C320.453 282.297 321.245 283.134 321.926 284.127C322.626 285.102 323.179 286.234 323.584 287.522C323.989 288.81 324.191 290.263 324.191 291.882V308.441Z" fill="white"/>
<mask id="path-5-outside-1_1062_15" maskUnits="userSpaceOnUse" x="44.6677" y="322.528" width="235" height="11" fill="black">
<rect fill="white" x="44.6677" y="322.528" width="235" height="11"/>
<path d="M45.6677 332.56V323.712H51.3816V325.101H47.1484V327.282H50.6444V328.671H47.1484V331.171H51.3816V332.56H45.6677Z"/>
<path d="M56.5421 332.56V323.712H57.8754L60.9351 329.979L63.9948 323.712H65.328V332.56H63.9456V326.889L61.23 332.56H60.6402L57.9307 326.889V332.56H56.5421Z"/>
<path d="M70.7405 332.56V323.712H74.3962C74.4822 323.712 74.5928 323.716 74.7279 323.725C74.8631 323.729 74.988 323.741 75.1027 323.762C75.6147 323.839 76.0366 324.009 76.3684 324.271C76.7043 324.534 76.9521 324.865 77.1118 325.267C77.2757 325.664 77.3576 326.107 77.3576 326.594C77.3576 327.077 77.2757 327.52 77.1118 327.921C76.948 328.318 76.6981 328.648 76.3623 328.91C76.0305 329.172 75.6106 329.342 75.1027 329.42C74.988 329.437 74.8611 329.449 74.7218 329.457C74.5866 329.465 74.4781 329.469 74.3962 329.469H72.2212V332.56H70.7405ZM72.2212 328.087H74.3347C74.4167 328.087 74.5088 328.083 74.6112 328.075C74.7136 328.066 74.8078 328.05 74.8938 328.025C75.1396 327.964 75.3321 327.855 75.4714 327.7C75.6147 327.544 75.7151 327.368 75.7724 327.171C75.8339 326.975 75.8646 326.782 75.8646 326.594C75.8646 326.406 75.8339 326.213 75.7724 326.016C75.7151 325.816 75.6147 325.638 75.4714 325.482C75.3321 325.326 75.1396 325.218 74.8938 325.156C74.8078 325.132 74.7136 325.117 74.6112 325.113C74.5088 325.105 74.4167 325.101 74.3347 325.101H72.2212V328.087Z"/>
<path d="M86.0166 332.744C85.1318 332.744 84.3741 332.552 83.7433 332.167C83.1125 331.777 82.6271 331.237 82.2872 330.545C81.9513 329.852 81.7834 329.049 81.7834 328.136C81.7834 327.223 81.9513 326.42 82.2872 325.728C82.6271 325.035 83.1125 324.497 83.7433 324.112C84.3741 323.723 85.1318 323.528 86.0166 323.528C86.9013 323.528 87.6591 323.723 88.2899 324.112C88.9247 324.497 89.4101 325.035 89.746 325.728C90.086 326.42 90.2559 327.223 90.2559 328.136C90.2559 329.049 90.086 329.852 89.746 330.545C89.4101 331.237 88.9247 331.777 88.2899 332.167C87.6591 332.552 86.9013 332.744 86.0166 332.744ZM86.0166 331.349C86.6105 331.353 87.1041 331.222 87.4973 330.956C87.8946 330.69 88.1916 330.315 88.3882 329.832C88.5889 329.348 88.6892 328.783 88.6892 328.136C88.6892 327.489 88.5889 326.928 88.3882 326.453C88.1916 325.973 87.8946 325.601 87.4973 325.334C87.1041 325.068 86.6105 324.931 86.0166 324.923C85.4227 324.919 84.9291 325.05 84.5359 325.316C84.1427 325.582 83.8457 325.957 83.645 326.44C83.4484 326.924 83.3501 327.489 83.3501 328.136C83.3501 328.783 83.4484 329.346 83.645 329.826C83.8416 330.301 84.1365 330.671 84.5297 330.938C84.927 331.204 85.4227 331.341 86.0166 331.349Z"/>
<path d="M96.6611 332.56L94.0744 323.712H95.6289L97.3922 330.102L99.1494 323.725L100.704 323.712L102.467 330.102L104.224 323.712H105.779L103.198 332.56H101.736L99.9235 326.268L98.1233 332.56H96.6611Z"/>
<path d="M110.468 332.56V323.712H116.182V325.101H111.948V327.282H115.444V328.671H111.948V331.171H116.182V332.56H110.468Z"/>
<path d="M121.342 332.56V323.712H124.998C125.084 323.712 125.194 323.716 125.329 323.725C125.465 323.729 125.59 323.741 125.704 323.762C126.216 323.839 126.638 324.009 126.97 324.271C127.306 324.534 127.554 324.865 127.713 325.267C127.877 325.664 127.959 326.107 127.959 326.594C127.959 327.315 127.777 327.935 127.412 328.456C127.048 328.972 126.489 329.291 125.735 329.414L125.102 329.469H122.823V332.56H121.342ZM126.423 332.56L124.678 328.959L126.184 328.628L128.1 332.56H126.423ZM122.823 328.087H124.936C125.018 328.087 125.11 328.083 125.213 328.075C125.315 328.066 125.409 328.05 125.495 328.025C125.741 327.964 125.934 327.855 126.073 327.7C126.216 327.544 126.317 327.368 126.374 327.171C126.435 326.975 126.466 326.782 126.466 326.594C126.466 326.406 126.435 326.213 126.374 326.016C126.317 325.816 126.216 325.638 126.073 325.482C125.934 325.326 125.741 325.218 125.495 325.156C125.409 325.132 125.315 325.117 125.213 325.113C125.11 325.105 125.018 325.101 124.936 325.101H122.823V328.087Z"/>
<path d="M133.14 332.56V323.712H138.854V325.101H134.621V327.282H138.117V328.671H134.621V331.171H138.854V332.56H133.14Z"/>
<path d="M144.015 332.56V323.712H146.835C146.909 323.712 147.054 323.714 147.271 323.719C147.492 323.723 147.705 323.737 147.91 323.762C148.611 323.852 149.202 324.102 149.686 324.511C150.173 324.917 150.542 325.435 150.792 326.066C151.042 326.696 151.166 327.387 151.166 328.136C151.166 328.886 151.042 329.576 150.792 330.207C150.542 330.837 150.173 331.358 149.686 331.767C149.202 332.173 148.611 332.42 147.91 332.511C147.709 332.535 147.498 332.55 147.277 332.554C147.056 332.558 146.909 332.56 146.835 332.56H144.015ZM145.52 331.165H146.835C146.958 331.165 147.113 331.161 147.302 331.153C147.494 331.145 147.664 331.126 147.812 331.097C148.23 331.02 148.57 330.833 148.832 330.538C149.094 330.243 149.286 329.885 149.409 329.463C149.536 329.041 149.6 328.599 149.6 328.136C149.6 327.657 149.536 327.206 149.409 326.784C149.282 326.363 149.086 326.008 148.819 325.721C148.557 325.435 148.221 325.252 147.812 325.175C147.664 325.142 147.494 325.123 147.302 325.119C147.113 325.111 146.958 325.107 146.835 325.107H145.52V331.165Z"/>
<path d="M162.452 332.56V323.712H168.166V325.101H163.932V327.282H167.428V328.671H163.932V331.171H168.166V332.56H162.452Z"/>
<path d="M173.326 332.56V323.712H174.825L178.929 329.949V323.712H180.428V332.56H178.929L174.825 326.324V332.56H173.326Z"/>
<path d="M189.482 332.744C188.908 332.744 188.37 332.644 187.866 332.443C187.366 332.238 186.926 331.939 186.545 331.546C186.168 331.153 185.873 330.671 185.66 330.102C185.447 329.529 185.341 328.873 185.341 328.136C185.341 327.169 185.521 326.344 185.882 325.66C186.242 324.972 186.736 324.446 187.362 324.081C187.989 323.712 188.695 323.528 189.482 323.528C190.571 323.528 191.434 323.782 192.069 324.29C192.708 324.794 193.14 325.502 193.365 326.416L191.854 326.655C191.686 326.131 191.411 325.713 191.03 325.402C190.649 325.087 190.164 324.929 189.574 324.929C188.98 324.921 188.487 325.05 188.093 325.316C187.7 325.582 187.403 325.957 187.202 326.44C187.006 326.924 186.908 327.489 186.908 328.136C186.908 328.783 187.006 329.346 187.202 329.826C187.399 330.301 187.694 330.671 188.087 330.938C188.485 331.204 188.98 331.341 189.574 331.349C190.021 331.353 190.412 331.274 190.748 331.11C191.083 330.942 191.358 330.69 191.571 330.354C191.784 330.014 191.927 329.59 192.001 329.082H190.44V327.921H193.574C193.582 327.987 193.588 328.083 193.592 328.21C193.596 328.337 193.598 328.413 193.598 328.437C193.598 329.273 193.433 330.016 193.101 330.667C192.773 331.315 192.302 331.822 191.688 332.191C191.073 332.56 190.338 332.744 189.482 332.744Z"/>
<path d="M198.642 332.56V323.712H200.122V332.56H198.642Z"/>
<path d="M205.649 332.56V323.712H207.148L211.252 329.949V323.712H212.752V332.56H211.252L207.148 326.324V332.56H205.649Z"/>
<path d="M218.156 332.56V323.712H223.869V325.101H219.636V327.282H223.132V328.671H219.636V331.171H223.869V332.56H218.156Z"/>
<path d="M229.03 332.56V323.712H234.744V325.101H230.511V327.282H234.007V328.671H230.511V331.171H234.744V332.56H229.03Z"/>
<path d="M239.904 332.56V323.712H243.56C243.646 323.712 243.757 323.716 243.892 323.725C244.027 323.729 244.152 323.741 244.267 323.762C244.779 323.839 245.2 324.009 245.532 324.271C245.868 324.534 246.116 324.865 246.276 325.267C246.439 325.664 246.521 326.107 246.521 326.594C246.521 327.315 246.339 327.935 245.975 328.456C245.61 328.972 245.051 329.291 244.297 329.414L243.664 329.469H241.385V332.56H239.904ZM244.985 332.56L243.241 328.959L244.746 328.628L246.663 332.56H244.985ZM241.385 328.087H243.499C243.58 328.087 243.673 328.083 243.775 328.075C243.877 328.066 243.972 328.05 244.058 328.025C244.303 327.964 244.496 327.855 244.635 327.7C244.779 327.544 244.879 327.368 244.936 327.171C244.998 326.975 245.028 326.782 245.028 326.594C245.028 326.406 244.998 326.213 244.936 326.016C244.879 325.816 244.779 325.638 244.635 325.482C244.496 325.326 244.303 325.218 244.058 325.156C243.972 325.132 243.877 325.117 243.775 325.113C243.673 325.105 243.58 325.101 243.499 325.101H241.385V328.087Z"/>
<path d="M251.826 332.56V323.712H253.306V332.56H251.826Z"/>
<path d="M258.833 332.56V323.712H260.332L264.436 329.949V323.712H265.936V332.56H264.436L260.332 326.324V332.56H258.833Z"/>
<path d="M274.989 332.744C274.416 332.744 273.877 332.644 273.373 332.443C272.873 332.238 272.433 331.939 272.052 331.546C271.675 331.153 271.38 330.671 271.167 330.102C270.954 329.529 270.848 328.873 270.848 328.136C270.848 327.169 271.028 326.344 271.389 325.66C271.749 324.972 272.243 324.446 272.869 324.081C273.496 323.712 274.203 323.528 274.989 323.528C276.079 323.528 276.941 323.782 277.576 324.29C278.215 324.794 278.647 325.502 278.872 326.416L277.361 326.655C277.193 326.131 276.918 325.713 276.537 325.402C276.156 325.087 275.671 324.929 275.081 324.929C274.487 324.921 273.994 325.05 273.6 325.316C273.207 325.582 272.91 325.957 272.71 326.44C272.513 326.924 272.415 327.489 272.415 328.136C272.415 328.783 272.513 329.346 272.71 329.826C272.906 330.301 273.201 330.671 273.594 330.938C273.992 331.204 274.487 331.341 275.081 331.349C275.528 331.353 275.919 331.274 276.255 331.11C276.591 330.942 276.865 330.69 277.078 330.354C277.291 330.014 277.434 329.59 277.508 329.082H275.947V327.921H279.081C279.089 327.987 279.095 328.083 279.099 328.21C279.103 328.337 279.105 328.413 279.105 328.437C279.105 329.273 278.94 330.016 278.608 330.667C278.28 331.315 277.809 331.822 277.195 332.191C276.58 332.56 275.845 332.744 274.989 332.744Z"/>
</mask>
<path d="M45.6677 332.56V323.712H51.3816V325.101H47.1484V327.282H50.6444V328.671H47.1484V331.171H51.3816V332.56H45.6677Z" fill="white"/>
<path d="M56.5421 332.56V323.712H57.8754L60.9351 329.979L63.9948 323.712H65.328V332.56H63.9456V326.889L61.23 332.56H60.6402L57.9307 326.889V332.56H56.5421Z" fill="white"/>
<path d="M70.7405 332.56V323.712H74.3962C74.4822 323.712 74.5928 323.716 74.7279 323.725C74.8631 323.729 74.988 323.741 75.1027 323.762C75.6147 323.839 76.0366 324.009 76.3684 324.271C76.7043 324.534 76.9521 324.865 77.1118 325.267C77.2757 325.664 77.3576 326.107 77.3576 326.594C77.3576 327.077 77.2757 327.52 77.1118 327.921C76.948 328.318 76.6981 328.648 76.3623 328.91C76.0305 329.172 75.6106 329.342 75.1027 329.42C74.988 329.437 74.8611 329.449 74.7218 329.457C74.5866 329.465 74.4781 329.469 74.3962 329.469H72.2212V332.56H70.7405ZM72.2212 328.087H74.3347C74.4167 328.087 74.5088 328.083 74.6112 328.075C74.7136 328.066 74.8078 328.05 74.8938 328.025C75.1396 327.964 75.3321 327.855 75.4714 327.7C75.6147 327.544 75.7151 327.368 75.7724 327.171C75.8339 326.975 75.8646 326.782 75.8646 326.594C75.8646 326.406 75.8339 326.213 75.7724 326.016C75.7151 325.816 75.6147 325.638 75.4714 325.482C75.3321 325.326 75.1396 325.218 74.8938 325.156C74.8078 325.132 74.7136 325.117 74.6112 325.113C74.5088 325.105 74.4167 325.101 74.3347 325.101H72.2212V328.087Z" fill="white"/>
<path d="M86.0166 332.744C85.1318 332.744 84.3741 332.552 83.7433 332.167C83.1125 331.777 82.6271 331.237 82.2872 330.545C81.9513 329.852 81.7834 329.049 81.7834 328.136C81.7834 327.223 81.9513 326.42 82.2872 325.728C82.6271 325.035 83.1125 324.497 83.7433 324.112C84.3741 323.723 85.1318 323.528 86.0166 323.528C86.9013 323.528 87.6591 323.723 88.2899 324.112C88.9247 324.497 89.4101 325.035 89.746 325.728C90.086 326.42 90.2559 327.223 90.2559 328.136C90.2559 329.049 90.086 329.852 89.746 330.545C89.4101 331.237 88.9247 331.777 88.2899 332.167C87.6591 332.552 86.9013 332.744 86.0166 332.744ZM86.0166 331.349C86.6105 331.353 87.1041 331.222 87.4973 330.956C87.8946 330.69 88.1916 330.315 88.3882 329.832C88.5889 329.348 88.6892 328.783 88.6892 328.136C88.6892 327.489 88.5889 326.928 88.3882 326.453C88.1916 325.973 87.8946 325.601 87.4973 325.334C87.1041 325.068 86.6105 324.931 86.0166 324.923C85.4227 324.919 84.9291 325.05 84.5359 325.316C84.1427 325.582 83.8457 325.957 83.645 326.44C83.4484 326.924 83.3501 327.489 83.3501 328.136C83.3501 328.783 83.4484 329.346 83.645 329.826C83.8416 330.301 84.1365 330.671 84.5297 330.938C84.927 331.204 85.4227 331.341 86.0166 331.349Z" fill="white"/>
<path d="M96.6611 332.56L94.0744 323.712H95.6289L97.3922 330.102L99.1494 323.725L100.704 323.712L102.467 330.102L104.224 323.712H105.779L103.198 332.56H101.736L99.9235 326.268L98.1233 332.56H96.6611Z" fill="white"/>
<path d="M110.468 332.56V323.712H116.182V325.101H111.948V327.282H115.444V328.671H111.948V331.171H116.182V332.56H110.468Z" fill="white"/>
<path d="M121.342 332.56V323.712H124.998C125.084 323.712 125.194 323.716 125.329 323.725C125.465 323.729 125.59 323.741 125.704 323.762C126.216 323.839 126.638 324.009 126.97 324.271C127.306 324.534 127.554 324.865 127.713 325.267C127.877 325.664 127.959 326.107 127.959 326.594C127.959 327.315 127.777 327.935 127.412 328.456C127.048 328.972 126.489 329.291 125.735 329.414L125.102 329.469H122.823V332.56H121.342ZM126.423 332.56L124.678 328.959L126.184 328.628L128.1 332.56H126.423ZM122.823 328.087H124.936C125.018 328.087 125.11 328.083 125.213 328.075C125.315 328.066 125.409 328.05 125.495 328.025C125.741 327.964 125.934 327.855 126.073 327.7C126.216 327.544 126.317 327.368 126.374 327.171C126.435 326.975 126.466 326.782 126.466 326.594C126.466 326.406 126.435 326.213 126.374 326.016C126.317 325.816 126.216 325.638 126.073 325.482C125.934 325.326 125.741 325.218 125.495 325.156C125.409 325.132 125.315 325.117 125.213 325.113C125.11 325.105 125.018 325.101 124.936 325.101H122.823V328.087Z" fill="white"/>
<path d="M133.14 332.56V323.712H138.854V325.101H134.621V327.282H138.117V328.671H134.621V331.171H138.854V332.56H133.14Z" fill="white"/>
<path d="M144.015 332.56V323.712H146.835C146.909 323.712 147.054 323.714 147.271 323.719C147.492 323.723 147.705 323.737 147.91 323.762C148.611 323.852 149.202 324.102 149.686 324.511C150.173 324.917 150.542 325.435 150.792 326.066C151.042 326.696 151.166 327.387 151.166 328.136C151.166 328.886 151.042 329.576 150.792 330.207C150.542 330.837 150.173 331.358 149.686 331.767C149.202 332.173 148.611 332.42 147.91 332.511C147.709 332.535 147.498 332.55 147.277 332.554C147.056 332.558 146.909 332.56 146.835 332.56H144.015ZM145.52 331.165H146.835C146.958 331.165 147.113 331.161 147.302 331.153C147.494 331.145 147.664 331.126 147.812 331.097C148.23 331.02 148.57 330.833 148.832 330.538C149.094 330.243 149.286 329.885 149.409 329.463C149.536 329.041 149.6 328.599 149.6 328.136C149.6 327.657 149.536 327.206 149.409 326.784C149.282 326.363 149.086 326.008 148.819 325.721C148.557 325.435 148.221 325.252 147.812 325.175C147.664 325.142 147.494 325.123 147.302 325.119C147.113 325.111 146.958 325.107 146.835 325.107H145.52V331.165Z" fill="white"/>
<path d="M162.452 332.56V323.712H168.166V325.101H163.932V327.282H167.428V328.671H163.932V331.171H168.166V332.56H162.452Z" fill="white"/>
<path d="M173.326 332.56V323.712H174.825L178.929 329.949V323.712H180.428V332.56H178.929L174.825 326.324V332.56H173.326Z" fill="white"/>
<path d="M189.482 332.744C188.908 332.744 188.37 332.644 187.866 332.443C187.366 332.238 186.926 331.939 186.545 331.546C186.168 331.153 185.873 330.671 185.66 330.102C185.447 329.529 185.341 328.873 185.341 328.136C185.341 327.169 185.521 326.344 185.882 325.66C186.242 324.972 186.736 324.446 187.362 324.081C187.989 323.712 188.695 323.528 189.482 323.528C190.571 323.528 191.434 323.782 192.069 324.29C192.708 324.794 193.14 325.502 193.365 326.416L191.854 326.655C191.686 326.131 191.411 325.713 191.03 325.402C190.649 325.087 190.164 324.929 189.574 324.929C188.98 324.921 188.487 325.05 188.093 325.316C187.7 325.582 187.403 325.957 187.202 326.44C187.006 326.924 186.908 327.489 186.908 328.136C186.908 328.783 187.006 329.346 187.202 329.826C187.399 330.301 187.694 330.671 188.087 330.938C188.485 331.204 188.98 331.341 189.574 331.349C190.021 331.353 190.412 331.274 190.748 331.11C191.083 330.942 191.358 330.69 191.571 330.354C191.784 330.014 191.927 329.59 192.001 329.082H190.44V327.921H193.574C193.582 327.987 193.588 328.083 193.592 328.21C193.596 328.337 193.598 328.413 193.598 328.437C193.598 329.273 193.433 330.016 193.101 330.667C192.773 331.315 192.302 331.822 191.688 332.191C191.073 332.56 190.338 332.744 189.482 332.744Z" fill="white"/>
<path d="M198.642 332.56V323.712H200.122V332.56H198.642Z" fill="white"/>
<path d="M205.649 332.56V323.712H207.148L211.252 329.949V323.712H212.752V332.56H211.252L207.148 326.324V332.56H205.649Z" fill="white"/>
<path d="M218.156 332.56V323.712H223.869V325.101H219.636V327.282H223.132V328.671H219.636V331.171H223.869V332.56H218.156Z" fill="white"/>
<path d="M229.03 332.56V323.712H234.744V325.101H230.511V327.282H234.007V328.671H230.511V331.171H234.744V332.56H229.03Z" fill="white"/>
<path d="M239.904 332.56V323.712H243.56C243.646 323.712 243.757 323.716 243.892 323.725C244.027 323.729 244.152 323.741 244.267 323.762C244.779 323.839 245.2 324.009 245.532 324.271C245.868 324.534 246.116 324.865 246.276 325.267C246.439 325.664 246.521 326.107 246.521 326.594C246.521 327.315 246.339 327.935 245.975 328.456C245.61 328.972 245.051 329.291 244.297 329.414L243.664 329.469H241.385V332.56H239.904ZM244.985 332.56L243.241 328.959L244.746 328.628L246.663 332.56H244.985ZM241.385 328.087H243.499C243.58 328.087 243.673 328.083 243.775 328.075C243.877 328.066 243.972 328.05 244.058 328.025C244.303 327.964 244.496 327.855 244.635 327.7C244.779 327.544 244.879 327.368 244.936 327.171C244.998 326.975 245.028 326.782 245.028 326.594C245.028 326.406 244.998 326.213 244.936 326.016C244.879 325.816 244.779 325.638 244.635 325.482C244.496 325.326 244.303 325.218 244.058 325.156C243.972 325.132 243.877 325.117 243.775 325.113C243.673 325.105 243.58 325.101 243.499 325.101H241.385V328.087Z" fill="white"/>
<path d="M251.826 332.56V323.712H253.306V332.56H251.826Z" fill="white"/>
<path d="M258.833 332.56V323.712H260.332L264.436 329.949V323.712H265.936V332.56H264.436L260.332 326.324V332.56H258.833Z" fill="white"/>
<path d="M274.989 332.744C274.416 332.744 273.877 332.644 273.373 332.443C272.873 332.238 272.433 331.939 272.052 331.546C271.675 331.153 271.38 330.671 271.167 330.102C270.954 329.529 270.848 328.873 270.848 328.136C270.848 327.169 271.028 326.344 271.389 325.66C271.749 324.972 272.243 324.446 272.869 324.081C273.496 323.712 274.203 323.528 274.989 323.528C276.079 323.528 276.941 323.782 277.576 324.29C278.215 324.794 278.647 325.502 278.872 326.416L277.361 326.655C277.193 326.131 276.918 325.713 276.537 325.402C276.156 325.087 275.671 324.929 275.081 324.929C274.487 324.921 273.994 325.05 273.6 325.316C273.207 325.582 272.91 325.957 272.71 326.44C272.513 326.924 272.415 327.489 272.415 328.136C272.415 328.783 272.513 329.346 272.71 329.826C272.906 330.301 273.201 330.671 273.594 330.938C273.992 331.204 274.487 331.341 275.081 331.349C275.528 331.353 275.919 331.274 276.255 331.11C276.591 330.942 276.865 330.69 277.078 330.354C277.291 330.014 277.434 329.59 277.508 329.082H275.947V327.921H279.081C279.089 327.987 279.095 328.083 279.099 328.21C279.103 328.337 279.105 328.413 279.105 328.437C279.105 329.273 278.94 330.016 278.608 330.667C278.28 331.315 277.809 331.822 277.195 332.191C276.58 332.56 275.845 332.744 274.989 332.744Z" fill="white"/>
<path d="M45.6677 332.56V323.712H51.3816V325.101H47.1484V327.282H50.6444V328.671H47.1484V331.171H51.3816V332.56H45.6677Z" stroke="white" stroke-width="0.8" mask="url(#path-5-outside-1_1062_15)"/>
<path d="M56.5421 332.56V323.712H57.8754L60.9351 329.979L63.9948 323.712H65.328V332.56H63.9456V326.889L61.23 332.56H60.6402L57.9307 326.889V332.56H56.5421Z" stroke="white" stroke-width="0.8" mask="url(#path-5-outside-1_1062_15)"/>
<path d="M70.7405 332.56V323.712H74.3962C74.4822 323.712 74.5928 323.716 74.7279 323.725C74.8631 323.729 74.988 323.741 75.1027 323.762C75.6147 323.839 76.0366 324.009 76.3684 324.271C76.7043 324.534 76.9521 324.865 77.1118 325.267C77.2757 325.664 77.3576 326.107 77.3576 326.594C77.3576 327.077 77.2757 327.52 77.1118 327.921C76.948 328.318 76.6981 328.648 76.3623 328.91C76.0305 329.172 75.6106 329.342 75.1027 329.42C74.988 329.437 74.8611 329.449 74.7218 329.457C74.5866 329.465 74.4781 329.469 74.3962 329.469H72.2212V332.56H70.7405ZM72.2212 328.087H74.3347C74.4167 328.087 74.5088 328.083 74.6112 328.075C74.7136 328.066 74.8078 328.05 74.8938 328.025C75.1396 327.964 75.3321 327.855 75.4714 327.7C75.6147 327.544 75.7151 327.368 75.7724 327.171C75.8339 326.975 75.8646 326.782 75.8646 326.594C75.8646 326.406 75.8339 326.213 75.7724 326.016C75.7151 325.816 75.6147 325.638 75.4714 325.482C75.3321 325.326 75.1396 325.218 74.8938 325.156C74.8078 325.132 74.7136 325.117 74.6112 325.113C74.5088 325.105 74.4167 325.101 74.3347 325.101H72.2212V328.087Z" stroke="white" stroke-width="0.8" mask="url(#path-5-outside-1_1062_15)"/>
<path d="M86.0166 332.744C85.1318 332.744 84.3741 332.552 83.7433 332.167C83.1125 331.777 82.6271 331.237 82.2872 330.545C81.9513 329.852 81.7834 329.049 81.7834 328.136C81.7834 327.223 81.9513 326.42 82.2872 325.728C82.6271 325.035 83.1125 324.497 83.7433 324.112C84.3741 323.723 85.1318 323.528 86.0166 323.528C86.9013 323.528 87.6591 323.723 88.2899 324.112C88.9247 324.497 89.4101 325.035 89.746 325.728C90.086 326.42 90.2559 327.223 90.2559 328.136C90.2559 329.049 90.086 329.852 89.746 330.545C89.4101 331.237 88.9247 331.777 88.2899 332.167C87.6591 332.552 86.9013 332.744 86.0166 332.744ZM86.0166 331.349C86.6105 331.353 87.1041 331.222 87.4973 330.956C87.8946 330.69 88.1916 330.315 88.3882 329.832C88.5889 329.348 88.6892 328.783 88.6892 328.136C88.6892 327.489 88.5889 326.928 88.3882 326.453C88.1916 325.973 87.8946 325.601 87.4973 325.334C87.1041 325.068 86.6105 324.931 86.0166 324.923C85.4227 324.919 84.9291 325.05 84.5359 325.316C84.1427 325.582 83.8457 325.957 83.645 326.44C83.4484 326.924 83.3501 327.489 83.3501 328.136C83.3501 328.783 83.4484 329.346 83.645 329.826C83.8416 330.301 84.1365 330.671 84.5297 330.938C84.927 331.204 85.4227 331.341 86.0166 331.349Z" stroke="white" stroke-width="0.8" mask="url(#path-5-outside-1_1062_15)"/>
<path d="M96.6611 332.56L94.0744 323.712H95.6289L97.3922 330.102L99.1494 323.725L100.704 323.712L102.467 330.102L104.224 323.712H105.779L103.198 332.56H101.736L99.9235 326.268L98.1233 332.56H96.6611Z" stroke="white" stroke-width="0.8" mask="url(#path-5-outside-1_1062_15)"/>
<path d="M110.468 332.56V323.712H116.182V325.101H111.948V327.282H115.444V328.671H111.948V331.171H116.182V332.56H110.468Z" stroke="white" stroke-width="0.8" mask="url(#path-5-outside-1_1062_15)"/>
<path d="M121.342 332.56V323.712H124.998C125.084 323.712 125.194 323.716 125.329 323.725C125.465 323.729 125.59 323.741 125.704 323.762C126.216 323.839 126.638 324.009 126.97 324.271C127.306 324.534 127.554 324.865 127.713 325.267C127.877 325.664 127.959 326.107 127.959 326.594C127.959 327.315 127.777 327.935 127.412 328.456C127.048 328.972 126.489 329.291 125.735 329.414L125.102 329.469H122.823V332.56H121.342ZM126.423 332.56L124.678 328.959L126.184 328.628L128.1 332.56H126.423ZM122.823 328.087H124.936C125.018 328.087 125.11 328.083 125.213 328.075C125.315 328.066 125.409 328.05 125.495 328.025C125.741 327.964 125.934 327.855 126.073 327.7C126.216 327.544 126.317 327.368 126.374 327.171C126.435 326.975 126.466 326.782 126.466 326.594C126.466 326.406 126.435 326.213 126.374 326.016C126.317 325.816 126.216 325.638 126.073 325.482C125.934 325.326 125.741 325.218 125.495 325.156C125.409 325.132 125.315 325.117 125.213 325.113C125.11 325.105 125.018 325.101 124.936 325.101H122.823V328.087Z" stroke="white" stroke-width="0.8" mask="url(#path-5-outside-1_1062_15)"/>
<path d="M133.14 332.56V323.712H138.854V325.101H134.621V327.282H138.117V328.671H134.621V331.171H138.854V332.56H133.14Z" stroke="white" stroke-width="0.8" mask="url(#path-5-outside-1_1062_15)"/>
<path d="M144.015 332.56V323.712H146.835C146.909 323.712 147.054 323.714 147.271 323.719C147.492 323.723 147.705 323.737 147.91 323.762C148.611 323.852 149.202 324.102 149.686 324.511C150.173 324.917 150.542 325.435 150.792 326.066C151.042 326.696 151.166 327.387 151.166 328.136C151.166 328.886 151.042 329.576 150.792 330.207C150.542 330.837 150.173 331.358 149.686 331.767C149.202 332.173 148.611 332.42 147.91 332.511C147.709 332.535 147.498 332.55 147.277 332.554C147.056 332.558 146.909 332.56 146.835 332.56H144.015ZM145.52 331.165H146.835C146.958 331.165 147.113 331.161 147.302 331.153C147.494 331.145 147.664 331.126 147.812 331.097C148.23 331.02 148.57 330.833 148.832 330.538C149.094 330.243 149.286 329.885 149.409 329.463C149.536 329.041 149.6 328.599 149.6 328.136C149.6 327.657 149.536 327.206 149.409 326.784C149.282 326.363 149.086 326.008 148.819 325.721C148.557 325.435 148.221 325.252 147.812 325.175C147.664 325.142 147.494 325.123 147.302 325.119C147.113 325.111 146.958 325.107 146.835 325.107H145.52V331.165Z" stroke="white" stroke-width="0.8" mask="url(#path-5-outside-1_1062_15)"/>
<path d="M162.452 332.56V323.712H168.166V325.101H163.932V327.282H167.428V328.671H163.932V331.171H168.166V332.56H162.452Z" stroke="white" stroke-width="0.8" mask="url(#path-5-outside-1_1062_15)"/>
<path d="M173.326 332.56V323.712H174.825L178.929 329.949V323.712H180.428V332.56H178.929L174.825 326.324V332.56H173.326Z" stroke="white" stroke-width="0.8" mask="url(#path-5-outside-1_1062_15)"/>
<path d="M189.482 332.744C188.908 332.744 188.37 332.644 187.866 332.443C187.366 332.238 186.926 331.939 186.545 331.546C186.168 331.153 185.873 330.671 185.66 330.102C185.447 329.529 185.341 328.873 185.341 328.136C185.341 327.169 185.521 326.344 185.882 325.66C186.242 324.972 186.736 324.446 187.362 324.081C187.989 323.712 188.695 323.528 189.482 323.528C190.571 323.528 191.434 323.782 192.069 324.29C192.708 324.794 193.14 325.502 193.365 326.416L191.854 326.655C191.686 326.131 191.411 325.713 191.03 325.402C190.649 325.087 190.164 324.929 189.574 324.929C188.98 324.921 188.487 325.05 188.093 325.316C187.7 325.582 187.403 325.957 187.202 326.44C187.006 326.924 186.908 327.489 186.908 328.136C186.908 328.783 187.006 329.346 187.202 329.826C187.399 330.301 187.694 330.671 188.087 330.938C188.485 331.204 188.98 331.341 189.574 331.349C190.021 331.353 190.412 331.274 190.748 331.11C191.083 330.942 191.358 330.69 191.571 330.354C191.784 330.014 191.927 329.59 192.001 329.082H190.44V327.921H193.574C193.582 327.987 193.588 328.083 193.592 328.21C193.596 328.337 193.598 328.413 193.598 328.437C193.598 329.273 193.433 330.016 193.101 330.667C192.773 331.315 192.302 331.822 191.688 332.191C191.073 332.56 190.338 332.744 189.482 332.744Z" stroke="white" stroke-width="0.8" mask="url(#path-5-outside-1_1062_15)"/>
<path d="M198.642 332.56V323.712H200.122V332.56H198.642Z" stroke="white" stroke-width="0.8" mask="url(#path-5-outside-1_1062_15)"/>
<path d="M205.649 332.56V323.712H207.148L211.252 329.949V323.712H212.752V332.56H211.252L207.148 326.324V332.56H205.649Z" stroke="white" stroke-width="0.8" mask="url(#path-5-outside-1_1062_15)"/>
<path d="M218.156 332.56V323.712H223.869V325.101H219.636V327.282H223.132V328.671H219.636V331.171H223.869V332.56H218.156Z" stroke="white" stroke-width="0.8" mask="url(#path-5-outside-1_1062_15)"/>
<path d="M229.03 332.56V323.712H234.744V325.101H230.511V327.282H234.007V328.671H230.511V331.171H234.744V332.56H229.03Z" stroke="white" stroke-width="0.8" mask="url(#path-5-outside-1_1062_15)"/>
<path d="M239.904 332.56V323.712H243.56C243.646 323.712 243.757 323.716 243.892 323.725C244.027 323.729 244.152 323.741 244.267 323.762C244.779 323.839 245.2 324.009 245.532 324.271C245.868 324.534 246.116 324.865 246.276 325.267C246.439 325.664 246.521 326.107 246.521 326.594C246.521 327.315 246.339 327.935 245.975 328.456C245.61 328.972 245.051 329.291 244.297 329.414L243.664 329.469H241.385V332.56H239.904ZM244.985 332.56L243.241 328.959L244.746 328.628L246.663 332.56H244.985ZM241.385 328.087H243.499C243.58 328.087 243.673 328.083 243.775 328.075C243.877 328.066 243.972 328.05 244.058 328.025C244.303 327.964 244.496 327.855 244.635 327.7C244.779 327.544 244.879 327.368 244.936 327.171C244.998 326.975 245.028 326.782 245.028 326.594C245.028 326.406 244.998 326.213 244.936 326.016C244.879 325.816 244.779 325.638 244.635 325.482C244.496 325.326 244.303 325.218 244.058 325.156C243.972 325.132 243.877 325.117 243.775 325.113C243.673 325.105 243.58 325.101 243.499 325.101H241.385V328.087Z" stroke="white" stroke-width="0.8" mask="url(#path-5-outside-1_1062_15)"/>
<path d="M251.826 332.56V323.712H253.306V332.56H251.826Z" stroke="white" stroke-width="0.8" mask="url(#path-5-outside-1_1062_15)"/>
<path d="M258.833 332.56V323.712H260.332L264.436 329.949V323.712H265.936V332.56H264.436L260.332 326.324V332.56H258.833Z" stroke="white" stroke-width="0.8" mask="url(#path-5-outside-1_1062_15)"/>
<path d="M274.989 332.744C274.416 332.744 273.877 332.644 273.373 332.443C272.873 332.238 272.433 331.939 272.052 331.546C271.675 331.153 271.38 330.671 271.167 330.102C270.954 329.529 270.848 328.873 270.848 328.136C270.848 327.169 271.028 326.344 271.389 325.66C271.749 324.972 272.243 324.446 272.869 324.081C273.496 323.712 274.203 323.528 274.989 323.528C276.079 323.528 276.941 323.782 277.576 324.29C278.215 324.794 278.647 325.502 278.872 326.416L277.361 326.655C277.193 326.131 276.918 325.713 276.537 325.402C276.156 325.087 275.671 324.929 275.081 324.929C274.487 324.921 273.994 325.05 273.6 325.316C273.207 325.582 272.91 325.957 272.71 326.44C272.513 326.924 272.415 327.489 272.415 328.136C272.415 328.783 272.513 329.346 272.71 329.826C272.906 330.301 273.201 330.671 273.594 330.938C273.992 331.204 274.487 331.341 275.081 331.349C275.528 331.353 275.919 331.274 276.255 331.11C276.591 330.942 276.865 330.69 277.078 330.354C277.291 330.014 277.434 329.59 277.508 329.082H275.947V327.921H279.081C279.089 327.987 279.095 328.083 279.099 328.21C279.103 328.337 279.105 328.413 279.105 328.437C279.105 329.273 278.94 330.016 278.608 330.667C278.28 331.315 277.809 331.822 277.195 332.191C276.58 332.56 275.845 332.744 274.989 332.744Z" stroke="white" stroke-width="0.8" mask="url(#path-5-outside-1_1062_15)"/>
</svg>
